SplineFontDB: 3.2
FontName: Amalgama
FullName: Amalgama
FamilyName: Amalgama
Weight: Regular
Copyright: Amalgama remake by NR74W (2021).\nOriginal font design by The Designers Republic (1995).
UComments: "2021-9-21: Created with FontForge (http://fontforge.org)"

StartChar: period
Encoding: 46 46 1
Width: 270
Flags: W
HStem: 0 200<0 220>
VStem: 0 220<0 200>
LayerCount: 2
Fore
SplineSet
0 0 m 1
 0 200 l 1
 220 200 l 1
 220 0 l 1
 0 0 l 1
EndSplineSet
Validated: 1
EndChar

StartChar: zero
Encoding: 48 48 2
Width: 1210
Flags: W
HStem: 0 200<290.938 869.062> 600 200<290.938 869.062>
VStem: 0 220<284.73 515.114> 940 220<284.73 515.114>
LayerCount: 2
Fore
SplineSet
220 400 m 0
 220 250 290 200 370 200 c 1
 790 200 l 1
 870 200 940 250 940 400 c 0
 940 550 870 600 790 600 c 1
 370 600 l 1
 290 600 220 550 220 400 c 0
0 400 m 0
 0 694 150 800 370 800 c 1
 790 800 l 1
 1010 800 1160 694 1160 400 c 0
 1160 105 1010 0 790 0 c 1
 370 0 l 1
 150 0 0 105 0 400 c 0
EndSplineSet
Validated: 1
EndChar

StartChar: one
Encoding: 49 49 3
Width: 500
Flags: W
HStem: 0 21G<230 450> 600 200<0 186.434>
VStem: 230 220<0 553.187>
LayerCount: 2
Fore
SplineSet
0 600 m 25
 0 800 l 25
 120 800 l 17
 302 800 450 666 450 500 c 9
 450 0 l 25
 230 0 l 1
 230 500 l 1
 230 555 181 600 120 600 c 9
 0 600 l 25
EndSplineSet
EndChar

StartChar: two
Encoding: 50 50 4
Width: 890
Flags: W
HStem: 0 170<220 840> 280 200<235.162 598.411> 600 200<0 603.025>
VStem: 620 220<497.075 582.618>
LayerCount: 2
Fore
SplineSet
0 0 m 9
 0 240 l 17
 0 375 127 480 260 480 c 1
 550 480 l 1
 595 480 620 510 620 540 c 1
 620 570 595 600 550 600 c 1
 0 600 l 9
 0 800 l 17
 570 800 l 1
 752 800 840 664 840 540 c 1
 840 388 724 280 570 280 c 1
 275 280 l 1
 248 280 220 255 220 225 c 9
 220 170 l 17
 840 170 l 1
 840 0 l 1
 0 0 l 9
EndSplineSet
Validated: 1
EndChar

StartChar: three
Encoding: 51 51 5
Width: 820
Flags: W
HStem: 0 200<0 478.897> 300 200<0 536> 600 200<0 478.897>
VStem: 0 770<309.911 489.829>
CounterMasks: 1 e0
LayerCount: 2
Fore
SplineSet
0 0 m 1
 0 200 l 1
 400 200 l 2
 459 200 512 227 536 300 c 1
 0 300 l 1
 0 500 l 1
 536 500 l 1
 512 573 459 600 400 600 c 2
 0 600 l 1
 0 800 l 1
 400 800 l 2
 620 800 770 694 770 400 c 0
 770 105 620 0 400 0 c 2
 0 0 l 1
EndSplineSet
Validated: 1
EndChar

StartChar: four
Encoding: 52 52 6
Width: 890
Flags: W
HStem: 0 21G<450 670> 170 200<263.566 450 670 840> 780 20G<0 220>
VStem: 0 220<416.813 800> 450 220<0 170 370 540>
LayerCount: 2
Fore
SplineSet
0 470 m 9
 0 800 l 25
 220 800 l 1
 220 470 l 1
 220 415 269 370 330 370 c 1
 450 370 l 1
 450 540 l 1
 670 540 l 1
 670 370 l 1
 840 370 l 9
 840 170 l 17
 670 170 l 1
 670 0 l 1
 450 0 l 1
 450 170 l 1
 330 170 l 1
 148 170 0 304 0 470 c 9
EndSplineSet
EndChar

StartChar: five
Encoding: 53 53 7
Width: 890
Flags: W
HStem: 0 170<0 602.356> 280 200<241.589 604.838> 600 200<236.975 840>
VStem: 0 220<497.075 582.618> 620 220<183.945 266.131>
LayerCount: 2
Fore
SplineSet
0 0 m 1
 0 170 l 1
 565 170 l 1
 592 170 620 195 620 225 c 1
 620 255 592 280 565 280 c 1
 270 280 l 1
 116 280 0 388 0 540 c 1
 0 664 88 800 270 800 c 1
 840 800 l 9
 840 600 l 17
 290 600 l 1
 245 600 220 570 220 540 c 1
 220 510 245 480 290 480 c 1
 580 480 l 1
 713 480 840 375 840 240 c 1
 840 123 742 0 580 0 c 1
 0 0 l 1
EndSplineSet
Validated: 1
EndChar

StartChar: six
Encoding: 54 54 8
Width: 890
Flags: W
HStem: 0 200<263.566 603.025> 320 200<222 598.411> 600 200<263.566 840>
VStem: 620 220<217.382 302.925>
LayerCount: 2
Fore
SplineSet
0 300 m 2
 0 500 l 2
 0 666 148 800 330 800 c 2
 840 800 l 1
 840 600 l 1
 330 600 l 2
 277 600 232 566 222 520 c 1
 570 520 l 2
 724 520 840 412 840 260 c 0
 840 136 752 0 570 0 c 2
 330 0 l 2
 148 0 0 134 0 300 c 2
220 320 m 1
 220 300 l 2
 220 245 269 200 330 200 c 2
 550 200 l 2
 595 200 620 230 620 260 c 0
 620 290 595 320 550 320 c 2
 220 320 l 1
EndSplineSet
Validated: 1
EndChar

StartChar: seven
Encoding: 55 55 9
Width: 890
Flags: W
HStem: 0 21G<450 670> 300 200<220 450 670 840> 600 200<0 406.434>
VStem: 450 220<0 300 500 553.187>
LayerCount: 2
Fore
SplineSet
0 600 m 1
 0 800 l 1
 340 800 l 2
 522 800 670 666 670 500 c 1
 840 500 l 1
 840 300 l 1
 670 300 l 1
 670 0 l 1
 450 0 l 1
 450 300 l 1
 220 300 l 1
 220 500 l 1
 450 500 l 1
 450 555 401 600 340 600 c 2
 0 600 l 1
EndSplineSet
EndChar

StartChar: eight
Encoding: 56 56 10
Width: 1110
Flags: W
HStem: 0 200<236.83 823.17> 300 200<230.547 829.453> 600 200<236.83 823.17>
VStem: 0 220<213.577 287.337 512.663 586.423> 840 220<213.577 287.337 512.663 586.423>
CounterMasks: 1 e0
LayerCount: 2
Fore
SplineSet
0 250 m 0
 0 302 19 356 56 400 c 1
 19 444 0 498 0 550 c 0
 0 633 68 800 285 800 c 2
 775 800 l 2
 992 800 1060 633 1060 550 c 0
 1060 498 1041 444 1004 400 c 1
 1041 356 1060 302 1060 250 c 0
 1060 167 992 0 775 0 c 2
 285 0 l 2
 68 0 0 167 0 250 c 0
220 250 m 0
 220 221 247 200 285 200 c 2
 775 200 l 2
 813 200 840 221 840 250 c 0
 840 278 813 300 775 300 c 2
 285 300 l 2
 247 300 220 278 220 250 c 0
220 550 m 0
 220 522 247 500 285 500 c 2
 775 500 l 2
 813 500 840 522 840 550 c 0
 840 579 813 600 775 600 c 2
 285 600 l 2
 247 600 220 579 220 550 c 0
EndSplineSet
EndChar

StartChar: nine
Encoding: 57 57 11
Width: 1160
Flags: W
HStem: 0 21G<890 1110> 200 200<263.566 840> 600 200<263.566 846.434>
VStem: 0 220<443.54 556.46> 890 220<0 553.187>
LayerCount: 2
Fore
SplineSet
0 500 m 1
 0 666 148 800 330 800 c 1
 780 800 l 1
 962 800 1110 666 1110 500 c 9
 1110 0 l 25
 890 0 l 1
 890 500 l 1
 890 555 841 600 780 600 c 1
 330 600 l 1
 269 600 220 555 220 500 c 1
 220 445 269 400 330 400 c 9
 840 400 l 25
 840 200 l 25
 330 200 l 17
 148 200 0 334 0 500 c 1
EndSplineSet
Validated: 1
EndChar

StartChar: colon
Encoding: 58 58 12
Width: 270
Flags: W
HStem: 200 200<0 220> 450 200<0 220>
VStem: 0 220<200 400 450 650>
LayerCount: 2
Fore
SplineSet
0 450 m 1
 0 650 l 1
 220 650 l 1
 220 450 l 1
 0 450 l 1
0 200 m 1
 0 400 l 1
 220 400 l 1
 220 200 l 1
 0 200 l 1
EndSplineSet
Validated: 1
EndChar

StartChar: A
Encoding: 65 65 13
Width: 1210
Flags: W
HStem: 0 200<236.83 869.062> 305 190<236.146 840> 600 200<0 869.062>
VStem: 0 220<213.277 292.181> 940 220<284.886 515.27>
CounterMasks: 1 e0
LayerCount: 2
Fore
SplineSet
0 600 m 9
 0 800 l 17
 790 800 l 1
 1010 800 1160 695 1160 400 c 0
 1160 106 1010 0 790 0 c 1
 285 0 l 1
 68 0 0 170 0 253 c 0
 0 373 104 495 285 495 c 1
 840 495 l 9
 840 305 l 17
 285 305 l 1
 247 305 220 281 220 253 c 0
 220 224 247 200 285 200 c 1
 790 200 l 1
 870 200 940 250 940 400 c 0
 940 550 870 600 790 600 c 1
 0 600 l 9
EndSplineSet
Validated: 1
EndChar

StartChar: B
Encoding: 66 66 14
Width: 1160
Flags: W
HStem: 0 200<263.566 846.434> 400 200<270 846.434> 780 20G<0 220>
VStem: 0 220<246.813 800> 890 220<243.54 356.46>
LayerCount: 2
Fore
SplineSet
0 800 m 25
 220 800 l 1
 220 300 l 1
 220 245 269 200 330 200 c 1
 780 200 l 1
 841 200 890 245 890 300 c 1
 890 355 841 400 780 400 c 9
 270 400 l 25
 270 600 l 25
 780 600 l 17
 962 600 1110 466 1110 300 c 1
 1110 134 962 0 780 0 c 1
 330 0 l 1
 148 0 0 134 0 300 c 9
 0 800 l 25
EndSplineSet
Validated: 1
EndChar

StartChar: C
Encoding: 67 67 15
Width: 850
Flags: W
HStem: 0 200<290.938 800> 600 200<290.938 800>
VStem: 0 220<284.73 515.114>
LayerCount: 2
Fore
SplineSet
0 400 m 0
 0 694 150 800 370 800 c 1
 800 800 l 1
 800 600 l 1
 370 600 l 1
 290 600 220 550 220 400 c 0
 220 250 290 200 370 200 c 1
 800 200 l 1
 800 0 l 1
 370 0 l 1
 150 0 0 105 0 400 c 0
EndSplineSet
Validated: 1
EndChar

StartChar: D
Encoding: 68 68 16
Width: 1160
Flags: W
HStem: 0 200<270 846.434> 600 200<263.566 846.434>
VStem: 0 220<0 553.187> 890 220<246.813 553.187>
LayerCount: 2
Fore
SplineSet
0 0 m 25
 0 500 l 17
 0 666 148 800 330 800 c 1
 780 800 l 1
 962 800 1110 666 1110 500 c 1
 1110 300 l 1
 1110 134 962 0 780 0 c 9
 270 0 l 25
 270 200 l 25
 780 200 l 17
 841 200 890 245 890 300 c 1
 890 500 l 1
 890 555 841 600 780 600 c 1
 330 600 l 1
 269 600 220 555 220 500 c 1
 220 0 l 1
 0 0 l 25
EndSplineSet
Validated: 1
EndChar

StartChar: E
Encoding: 69 69 17
Width: 1210
Flags: W
HStem: 0 200<290.938 1160> 305 190<320 923.854> 600 200<290.938 923.17>
VStem: 0 220<284.73 515.114> 940 220<507.819 586.723>
CounterMasks: 1 e0
LayerCount: 2
Fore
SplineSet
0 400 m 0
 0 694 150 800 370 800 c 1
 875 800 l 1
 1092 800 1160 630 1160 547 c 0
 1160 427 1056 305 875 305 c 1
 320 305 l 9
 320 495 l 17
 875 495 l 1
 913 495 940 519 940 547 c 0
 940 576 913 600 875 600 c 1
 370 600 l 1
 290 600 220 550 220 400 c 0
 220 250 290 200 370 200 c 1
 1160 200 l 9
 1160 0 l 17
 370 0 l 1
 150 0 0 105 0 400 c 0
EndSplineSet
Validated: 1
EndChar

StartChar: F
Encoding: 70 70 18
Width: 820
Flags: W
HStem: 0 21G<0 220> 200 200<220 770> 600 200<263.566 770>
VStem: 0 220<0 200 400 553.187>
LayerCount: 2
Fore
SplineSet
0 0 m 25
 0 500 l 17
 0 666 148 800 330 800 c 9
 770 800 l 25
 770 600 l 25
 330 600 l 17
 269 600 220 555 220 500 c 1
 220 400 l 9
 770 400 l 25
 770 200 l 25
 220 200 l 17
 220 0 l 1
 0 0 l 25
EndSplineSet
Validated: 1
EndChar

StartChar: G
Encoding: 71 71 19
Width: 1210
Flags: W
HStem: 0 200<290.938 923.17> 305 190<320 923.854> 600 200<290.938 1160>
VStem: 0 220<284.886 515.27> 940 220<213.277 292.181>
CounterMasks: 1 e0
LayerCount: 2
Fore
SplineSet
0 400 m 0
 0 695 150 800 370 800 c 1
 1160 800 l 9
 1160 600 l 17
 370 600 l 1
 290 600 220 550 220 400 c 0
 220 250 290 200 370 200 c 1
 875 200 l 1
 913 200 940 224 940 253 c 0
 940 281 913 305 875 305 c 1
 320 305 l 9
 320 495 l 17
 875 495 l 1
 1056 495 1160 373 1160 253 c 0
 1160 170 1092 0 875 0 c 1
 370 0 l 1
 150 0 0 106 0 400 c 0
EndSplineSet
Validated: 1
EndChar

StartChar: H
Encoding: 72 72 20
Width: 850
Flags: W
HStem: 0 21G<0 220 580 800> 300 200<220 580> 780 20G<0 220 580 800>
VStem: 0 220<0 300 500 800> 580 220<0 300 500 800>
LayerCount: 2
Fore
SplineSet
0 0 m 1
 0 800 l 1
 220 800 l 1
 220 500 l 1
 580 500 l 1
 580 800 l 1
 800 800 l 1
 800 0 l 1
 580 0 l 1
 580 300 l 1
 220 300 l 1
 220 0 l 1
 0 0 l 1
EndSplineSet
Validated: 1
EndChar

StartChar: I
Encoding: 73 73 21
Width: 270
Flags: W
HStem: 0 21G<0 220> 780 20G<0 220>
VStem: 0 220<0 800>
LayerCount: 2
Fore
SplineSet
0 0 m 1
 0 800 l 1
 220 800 l 1
 220 0 l 1
 0 0 l 1
EndSplineSet
Validated: 1
EndChar

StartChar: J
Encoding: 74 74 22
Width: 820
Flags: W
HStem: 0 200<0 506.434> 780 20G<550 770>
VStem: 550 220<246.813 800>
LayerCount: 2
Fore
SplineSet
0 0 m 25
 0 200 l 25
 440 200 l 17
 501 200 550 245 550 300 c 1
 550 800 l 1
 770 800 l 25
 770 300 l 17
 770 134 622 0 440 0 c 9
 0 0 l 25
EndSplineSet
Validated: 1
EndChar

StartChar: K
Encoding: 75 75 23
Width: 850
Flags: W
HStem: 0 21G<0 220 580 800> 300 200<220 538.018> 780 20G<0 220 580 800>
VStem: 0 220<0 300 500 800> 580 220<0 259.69 540.31 800>
LayerCount: 2
Fore
SplineSet
0 0 m 1
 0 800 l 1
 220 800 l 1
 220 500 l 1
 470 500 l 2
 531 500 580 545 580 600 c 2
 580 800 l 1
 800 800 l 1
 800 600 l 2
 800 523 768 453 716 400 c 1
 768 347 800 277 800 200 c 2
 800 0 l 1
 580 0 l 1
 580 200 l 2
 580 255 531 300 470 300 c 2
 220 300 l 1
 220 0 l 1
 0 0 l 1
EndSplineSet
Validated: 1
EndChar

StartChar: L
Encoding: 76 76 24
Width: 820
Flags: W
HStem: 0 200<263.566 770> 780 20G<0 220>
VStem: 0 220<246.813 800>
LayerCount: 2
Fore
SplineSet
0 300 m 9
 0 800 l 25
 220 800 l 1
 220 300 l 1
 220 245 269 200 330 200 c 9
 770 200 l 25
 770 0 l 25
 330 0 l 17
 148 0 0 134 0 300 c 9
EndSplineSet
Validated: 1
EndChar

StartChar: M
Encoding: 77 77 25
Width: 1380
Flags: W
HStem: 0 14<346.175 411.825> 48 20<346.744 406> 95 20<372 406> 192 14<346.175 411.825> 580 220<305.115 466.543 863.457 1024.89>
VStem: 0 220<0 492.697> 276 14<70.1748 135.825> 310 33<125 158> 318 28<68.2713 94.5793> 406 28<68 95 115 158> 468 14<70.1748 135.825> 555 220<0 493.593> 1110 220<0 492.697>
DStem2: 343 158 310 158 0.558853 -0.829266<0 37.0285>
LayerCount: 2
Fore
SplineSet
434 158 m 1xff78
 434 48 l 1
 364 48 l 2
 335 48 318 56 318 82 c 0xfef8
 318 99 329 108 341 112 c 1
 310 158 l 1
 343 158 l 1
 372 115 l 1
 406 115 l 1
 406 158 l 1
 434 158 l 1xff78
406 95 m 1
 364 95 l 2
 351 95 346 87 346 82 c 0
 346 75 350 68 364 68 c 2
 406 68 l 1
 406 95 l 1
379 192 m 0
 330 192 290 152 290 103 c 0
 290 54 330 14 379 14 c 0
 428 14 468 54 468 103 c 0
 468 152 428 192 379 192 c 0
379 206 m 0
 436 206 482 160 482 103 c 0
 482 46 436 0 379 0 c 0
 322 0 276 46 276 103 c 0
 276 160 322 206 379 206 c 0
0 0 m 1
 0 415 l 2
 0 628 172 800 385 800 c 0
 494 800 594 755 665 682 c 1
 736 755 836 800 945 800 c 0
 1158 800 1330 628 1330 415 c 2
 1330 0 l 1
 1110 0 l 1
 1110 415 l 2
 1110 506 1036 580 945 580 c 0
 854 580 775 506 775 415 c 2
 775 0 l 1
 555 0 l 1
 555 415 l 2
 555 506 476 580 385 580 c 0
 294 580 220 506 220 415 c 2
 220 0 l 1
 0 0 l 1
EndSplineSet
Validated: 1
EndChar

StartChar: N
Encoding: 78 78 26
Width: 820
Flags: W
HStem: 0 14<352.175 417.825> 48 20<352.744 412> 95 20<378 412> 192 14<352.175 417.825> 600 200<305.115 464.885>
VStem: 0 220<0 511.341> 282 14<70.1748 135.825> 316 33<125 158> 324 28<68.2713 94.5793> 412 28<68 95 115 158> 474 14<70.1748 135.825> 550 220<0 511.341>
DStem2: 349 158 316 158 0.558853 -0.829266<0 37.0285>
LayerCount: 2
Fore
SplineSet
440 158 m 1xff70
 440 48 l 1
 370 48 l 2
 341 48 324 56 324 82 c 0xfef0
 324 99 335 108 347 112 c 1
 316 158 l 1
 349 158 l 1
 378 115 l 1
 412 115 l 1
 412 158 l 1
 440 158 l 1xff70
412 95 m 1
 370 95 l 2
 357 95 352 87 352 82 c 0
 352 75 356 68 370 68 c 2
 412 68 l 1
 412 95 l 1
385 192 m 0
 336 192 296 152 296 103 c 0
 296 54 336 14 385 14 c 0
 434 14 474 54 474 103 c 0
 474 152 434 192 385 192 c 0
385 206 m 0
 442 206 488 160 488 103 c 0
 488 46 442 0 385 0 c 0
 328 0 282 46 282 103 c 0
 282 160 328 206 385 206 c 0
0 0 m 25
 0 415 l 17
 0 628 172 800 385 800 c 0
 598 800 770 628 770 415 c 9
 770 0 l 25
 550 0 l 25
 550 435 l 17
 550 526 476 600 385 600 c 0
 294 600 220 526 220 435 c 9
 220 0 l 25
 0 0 l 25
EndSplineSet
Validated: 1
EndChar

StartChar: O
Encoding: 79 79 27
Width: 1210
Flags: W
HStem: 0 200<290.938 869.062> 600 200<290.938 869.062>
VStem: 0 220<284.73 515.114> 940 220<284.73 515.114>
LayerCount: 2
Fore
SplineSet
220 400 m 0
 220 250 290 200 370 200 c 1
 790 200 l 1
 870 200 940 250 940 400 c 0
 940 550 870 600 790 600 c 1
 370 600 l 1
 290 600 220 550 220 400 c 0
0 400 m 0
 0 694 150 800 370 800 c 1
 790 800 l 1
 1010 800 1160 694 1160 400 c 0
 1160 105 1010 0 790 0 c 1
 370 0 l 1
 150 0 0 105 0 400 c 0
EndSplineSet
Validated: 1
EndChar

StartChar: P
Encoding: 80 80 28
Width: 1160
Flags: W
HStem: 0 21G<0 220> 200 200<270 846.434> 600 200<263.566 846.434>
VStem: 0 220<0 553.187> 890 220<443.54 556.46>
LayerCount: 2
Fore
SplineSet
0 0 m 25
 0 500 l 17
 0 666 148 800 330 800 c 1
 780 800 l 1
 962 800 1110 666 1110 500 c 1
 1110 334 962 200 780 200 c 9
 270 200 l 25
 270 400 l 25
 780 400 l 17
 841 400 890 445 890 500 c 1
 890 555 841 600 780 600 c 1
 330 600 l 1
 269 600 220 555 220 500 c 1
 220 0 l 1
 0 0 l 25
EndSplineSet
Validated: 1
EndChar

StartChar: Q
Encoding: 81 81 29
Width: 1210
Flags: W
HStem: 0 200<0 142 400.409 869.062> 600 200<400.938 869.062>
VStem: 110 220<281.931 515.114> 940 220<284.73 515.114>
LayerCount: 2
Fore
SplineSet
0 0 m 1
 0 200 l 1
 142 200 l 1
 121 254 110 320 110 400 c 0
 110 694 260 800 480 800 c 2
 790 800 l 2
 1010 800 1160 694 1160 400 c 0
 1160 105 1010 0 790 0 c 2
 0 0 l 1
480 200 m 1
 790 200 l 2
 870 200 940 250 940 400 c 0
 940 550 870 600 790 600 c 2
 480 600 l 2
 400 600 330 550 330 400 c 0
 330 250 400 200 480 200 c 1
EndSplineSet
Validated: 1
EndChar

StartChar: R
Encoding: 82 82 30
Width: 1160
Flags: W
HStem: 0 170<507.644 1110> 280 200<505.162 868.411> 600 200<263.566 873.025>
VStem: 0 220<0 553.187> 270 220<183.945 266.131> 890 220<497.075 582.618>
LayerCount: 2
Fore
SplineSet
0 0 m 25
 0 500 l 17
 0 666 148 800 330 800 c 1
 840 800 l 1
 1022 800 1110 664 1110 540 c 1
 1110 388 994 280 840 280 c 1
 545 280 l 1
 518 280 490 255 490 225 c 1
 490 195 518 170 545 170 c 1
 1110 170 l 1
 1110 0 l 1
 530 0 l 1
 368 0 270 123 270 240 c 1
 270 375 397 480 530 480 c 1
 820 480 l 1
 865 480 890 510 890 540 c 1
 890 570 865 600 820 600 c 1
 330 600 l 1
 269 600 220 555 220 500 c 1
 220 0 l 1
 0 0 l 25
EndSplineSet
Validated: 1
EndChar

StartChar: S
Encoding: 83 83 31
Width: 890
Flags: W
HStem: 0 170<0 602.356> 280 200<241.589 604.838> 600 200<236.975 840>
VStem: 0 220<497.075 582.618> 620 220<183.945 266.131>
LayerCount: 2
Fore
SplineSet
0 0 m 1
 0 170 l 1
 565 170 l 1
 592 170 620 195 620 225 c 1
 620 255 592 280 565 280 c 1
 270 280 l 1
 116 280 0 388 0 540 c 1
 0 664 88 800 270 800 c 1
 840 800 l 9
 840 600 l 17
 290 600 l 1
 245 600 220 570 220 540 c 1
 220 510 245 480 290 480 c 1
 580 480 l 1
 713 480 840 375 840 240 c 1
 840 123 742 0 580 0 c 1
 0 0 l 1
EndSplineSet
Validated: 1
EndChar

StartChar: T
Encoding: 84 84 32
Width: 850
Flags: W
HStem: 0 21G<290 510> 600 200<0 290 510 800>
VStem: 290 220<0 600>
LayerCount: 2
Fore
SplineSet
0 600 m 1
 0 800 l 1
 800 800 l 1
 800 600 l 1
 510 600 l 1
 510 0 l 1
 290 0 l 1
 290 600 l 1
 0 600 l 1
EndSplineSet
Validated: 1
EndChar

StartChar: U
Encoding: 85 85 33
Width: 820
Flags: W
HStem: 0 200<305.115 464.885> 594 14<352.175 417.825> 685 20<358 392> 732 20<358 417.256> 786 14<352.175 417.825>
VStem: 0 220<288.659 800> 282 14<664.175 729.825> 330 28<642 685 705 732> 418 28<705.421 731.729> 421 33<642 675> 474 14<664.175 729.825> 550 220<288.659 800>
DStem2: 423 688 392 685 0.558853 -0.829266<0 37.0285>
LayerCount: 2
Fore
SplineSet
330 642 m 1xff70
 330 752 l 1
 400 752 l 2
 429 752 446 744 446 718 c 0xffb0
 446 701 435 692 423 688 c 1
 454 642 l 1
 421 642 l 1
 392 685 l 1
 358 685 l 1
 358 642 l 1
 330 642 l 1xff70
358 705 m 1
 400 705 l 2
 413 705 418 713 418 718 c 0
 418 725 414 732 400 732 c 2
 358 732 l 1
 358 705 l 1
385 608 m 0
 434 608 474 648 474 697 c 0
 474 746 434 786 385 786 c 0
 336 786 296 746 296 697 c 0
 296 648 336 608 385 608 c 0
385 594 m 0
 328 594 282 640 282 697 c 0
 282 754 328 800 385 800 c 0
 442 800 488 754 488 697 c 0
 488 640 442 594 385 594 c 0
0 385 m 9
 0 800 l 25
 220 800 l 25
 220 365 l 17
 220 274 294 200 385 200 c 0
 476 200 550 274 550 365 c 9
 550 800 l 25
 770 800 l 25
 770 385 l 17
 770 172 598 0 385 0 c 0
 172 0 0 172 0 385 c 9
EndSplineSet
Validated: 1
EndChar

StartChar: V
Encoding: 86 86 34
Width: 820
Flags: W
HStem: 0 200<305.115 464.885> 780 20G<0 220 550 770> 780 20G<0 220 550 770>
VStem: 0 220<288.659 800> 550 220<288.659 800>
LayerCount: 2
Fore
SplineSet
0 385 m 9xd8
 0 800 l 25
 220 800 l 25
 220 365 l 17
 220 274 294 200 385 200 c 0
 476 200 550 274 550 365 c 9
 550 800 l 25
 770 800 l 25
 770 385 l 17
 770 172 598 0 385 0 c 0
 172 0 0 172 0 385 c 9xd8
EndSplineSet
Validated: 1
EndChar

StartChar: W
Encoding: 87 87 35
Width: 1380
Flags: W
HStem: 0 220<305.115 466.543 863.457 1024.89> 594 14<918.175 983.825> 685 20<924 958> 732 20<924 983.256> 786 14<918.175 983.825>
VStem: 0 220<307.303 800> 555 220<306.407 800> 848 14<664.175 729.825> 896 28<642 685 705 732> 984 28<705.421 731.729> 987 33<642 675> 1040 14<664.175 729.825> 1110 220<307.303 800>
DStem2: 989 688 958 685 0.558853 -0.829266<0 37.0285>
LayerCount: 2
Fore
SplineSet
896 642 m 1xffb8
 896 752 l 1
 966 752 l 2
 995 752 1012 744 1012 718 c 0xffd8
 1012 701 1001 692 989 688 c 1
 1020 642 l 1
 987 642 l 1
 958 685 l 1
 924 685 l 1
 924 642 l 1
 896 642 l 1xffb8
924 705 m 1
 966 705 l 2
 979 705 984 713 984 718 c 0
 984 725 980 732 966 732 c 2
 924 732 l 1
 924 705 l 1
951 608 m 0
 1000 608 1040 648 1040 697 c 0
 1040 746 1000 786 951 786 c 0
 902 786 862 746 862 697 c 0
 862 648 902 608 951 608 c 0
951 594 m 0
 894 594 848 640 848 697 c 0
 848 754 894 800 951 800 c 0
 1008 800 1054 754 1054 697 c 0
 1054 640 1008 594 951 594 c 0
0 385 m 2
 0 800 l 1
 220 800 l 1
 220 385 l 2
 220 294 294 220 385 220 c 0
 476 220 555 294 555 385 c 2
 555 800 l 1
 775 800 l 1
 775 385 l 2
 775 294 854 220 945 220 c 0
 1036 220 1110 294 1110 385 c 2
 1110 800 l 1
 1330 800 l 1
 1330 385 l 2
 1330 172 1158 0 945 0 c 0
 836 0 736 45 665 118 c 1
 594 45 494 0 385 0 c 0
 172 0 0 172 0 385 c 2
EndSplineSet
Validated: 1
EndChar

StartChar: X
Encoding: 88 88 36
Width: 1210
Flags: W
HStem: 0 200<0 396.203 763.797 1160> 600 200<0 396.203 763.797 1160>
VStem: 470 220<282.877 517.123>
LayerCount: 2
Fore
SplineSet
0 0 m 1
 0 200 l 1
 320 200 l 2
 400 200 470 250 470 400 c 0
 470 550 400 600 320 600 c 2
 0 600 l 1
 0 800 l 1
 320 800 l 2
 426 800 515 775 580 717 c 1
 645 775 734 800 840 800 c 2
 1160 800 l 1
 1160 600 l 1
 840 600 l 2
 760 600 690 550 690 400 c 0
 690 250 760 200 840 200 c 2
 1160 200 l 1
 1160 0 l 1
 840 0 l 2
 734 0 645 24 580 82 c 1
 515 24 426 0 320 0 c 2
 0 0 l 1
EndSplineSet
Validated: 1
EndChar

StartChar: Y
Encoding: 89 89 37
Width: 820
Flags: W
HStem: 0 392<302.927 467.073> 594 14<352.175 417.825> 685 20<358 392> 732 20<358 417.256> 786 14<352.175 417.825>
VStem: 0 220<481.99 800> 275 220<0 212.697> 282 14<664.175 729.825> 330 28<642 685 705 732> 418 28<705.421 731.729> 421 33<642 675> 474 14<664.175 729.825> 550 220<481.99 800>
DStem2: 423 688 392 685 0.558853 -0.829266<0 37.0285>
LayerCount: 2
Fore
SplineSet
330 642 m 1xfca8
 330 752 l 1
 400 752 l 2
 429 752 446 744 446 718 c 0xfcc8
 446 701 435 692 423 688 c 1
 454 642 l 1
 421 642 l 1
 392 685 l 1
 358 685 l 1
 358 642 l 1
 330 642 l 1xfca8
358 705 m 1
 400 705 l 2
 413 705 418 713 418 718 c 0
 418 725 414 732 400 732 c 2
 358 732 l 1
 358 705 l 1
385 608 m 0
 434 608 474 648 474 697 c 0
 474 746 434 786 385 786 c 0
 336 786 296 746 296 697 c 0xfd18
 296 648 336 608 385 608 c 0
385 594 m 0
 328 594 282 640 282 697 c 0
 282 754 328 800 385 800 c 0
 442 800 488 754 488 697 c 0
 488 640 442 594 385 594 c 0
0 577 m 2
 0 800 l 1
 220 800 l 1
 220 557 l 2
 220 466 294 392 385 392 c 0
 476 392 550 466 550 557 c 2
 550 800 l 1
 770 800 l 1
 770 577 l 2
 770 402 654 255 495 208 c 1
 495 0 l 1
 275 0 l 1
 275 208 l 1xfe08
 116 255 0 402 0 577 c 2
EndSplineSet
Validated: 1
EndChar

StartChar: Z
Encoding: 90 90 38
Width: 890
Flags: W
HStem: 0 170<237.644 840> 280 200<235.162 598.411> 600 200<0 603.025>
VStem: 0 220<183.945 266.131> 620 220<497.075 582.618>
LayerCount: 2
Fore
SplineSet
0 600 m 9
 0 800 l 17
 570 800 l 1
 752 800 840 664 840 540 c 1
 840 388 724 280 570 280 c 1
 275 280 l 1
 248 280 220 255 220 225 c 1
 220 195 248 170 275 170 c 1
 840 170 l 1
 840 0 l 1
 260 0 l 1
 98 0 0 123 0 240 c 1
 0 375 127 480 260 480 c 1
 550 480 l 1
 595 480 620 510 620 540 c 1
 620 570 595 600 550 600 c 1
 0 600 l 9
EndSplineSet
Validated: 1
EndChar

StartChar: a
Encoding: 97 97 39
Width: 1210
Flags: W
HStem: 0 200<236.83 869.062> 305 190<236.146 840> 600 200<0 869.062>
VStem: 0 220<213.277 292.181> 940 220<284.886 515.27>
LayerCount: 2
Fore
SplineSet
0 600 m 9
 0 800 l 17
 790 800 l 1
 1010 800 1160 695 1160 400 c 0
 1160 106 1010 0 790 0 c 1
 285 0 l 1
 68 0 0 170 0 253 c 0
 0 373 104 495 285 495 c 1
 840 495 l 9
 840 305 l 17
 285 305 l 1
 247 305 220 281 220 253 c 0
 220 224 247 200 285 200 c 1
 790 200 l 1
 870 200 940 250 940 400 c 0
 940 550 870 600 790 600 c 1
 0 600 l 9
EndSplineSet
Validated: 1
EndChar

StartChar: b
Encoding: 98 98 40
Width: 1160
Flags: W
HStem: 0 200<263.566 846.434> 400 200<270 846.434> 780 20G<0 220>
VStem: 0 220<246.813 800> 890 220<243.54 356.46>
LayerCount: 2
Fore
SplineSet
0 800 m 25
 220 800 l 1
 220 300 l 1
 220 245 269 200 330 200 c 1
 780 200 l 1
 841 200 890 245 890 300 c 1
 890 355 841 400 780 400 c 9
 270 400 l 25
 270 600 l 25
 780 600 l 17
 962 600 1110 466 1110 300 c 1
 1110 134 962 0 780 0 c 1
 330 0 l 1
 148 0 0 134 0 300 c 9
 0 800 l 25
EndSplineSet
Validated: 1
EndChar

StartChar: c
Encoding: 99 99 41
Width: 850
Flags: W
HStem: 0 200<290.938 800> 600 200<290.938 800>
VStem: 0 220<284.73 515.114>
LayerCount: 2
Fore
SplineSet
0 400 m 0
 0 694 150 800 370 800 c 1
 800 800 l 1
 800 600 l 1
 370 600 l 1
 290 600 220 550 220 400 c 0
 220 250 290 200 370 200 c 1
 800 200 l 1
 800 0 l 1
 370 0 l 1
 150 0 0 105 0 400 c 0
EndSplineSet
Validated: 1
EndChar

StartChar: d
Encoding: 100 100 42
Width: 1160
Flags: W
HStem: 0 200<270 846.434> 600 200<263.566 846.434>
VStem: 0 220<0 553.187> 890 220<246.813 553.187>
LayerCount: 2
Fore
SplineSet
0 0 m 25
 0 500 l 17
 0 666 148 800 330 800 c 1
 780 800 l 1
 962 800 1110 666 1110 500 c 1
 1110 300 l 1
 1110 134 962 0 780 0 c 9
 270 0 l 25
 270 200 l 25
 780 200 l 17
 841 200 890 245 890 300 c 1
 890 500 l 1
 890 555 841 600 780 600 c 1
 330 600 l 1
 269 600 220 555 220 500 c 1
 220 0 l 1
 0 0 l 25
EndSplineSet
Validated: 1
EndChar

StartChar: e
Encoding: 101 101 43
Width: 1210
Flags: W
HStem: 0 200<290.938 1160> 305 190<320 923.854> 600 200<290.938 923.17>
VStem: 0 220<284.73 515.114> 940 220<507.819 586.723>
LayerCount: 2
Fore
SplineSet
0 400 m 0
 0 694 150 800 370 800 c 1
 875 800 l 1
 1092 800 1160 630 1160 547 c 0
 1160 427 1056 305 875 305 c 1
 320 305 l 9
 320 495 l 17
 875 495 l 1
 913 495 940 519 940 547 c 0
 940 576 913 600 875 600 c 1
 370 600 l 1
 290 600 220 550 220 400 c 0
 220 250 290 200 370 200 c 1
 1160 200 l 9
 1160 0 l 17
 370 0 l 1
 150 0 0 105 0 400 c 0
EndSplineSet
Validated: 1
EndChar

StartChar: f
Encoding: 102 102 44
Width: 820
Flags: W
HStem: 0 21G<0 220> 200 200<220 770> 600 200<263.566 770>
VStem: 0 220<0 200 400 553.187>
LayerCount: 2
Fore
SplineSet
0 0 m 25
 0 500 l 17
 0 666 148 800 330 800 c 9
 770 800 l 25
 770 600 l 25
 330 600 l 17
 269 600 220 555 220 500 c 1
 220 400 l 9
 770 400 l 25
 770 200 l 25
 220 200 l 17
 220 0 l 1
 0 0 l 25
EndSplineSet
Validated: 1
EndChar

StartChar: g
Encoding: 103 103 45
Width: 1210
Flags: W
HStem: 0 200<290.938 923.17> 305 190<320 923.854> 600 200<290.938 1160>
VStem: 0 220<284.886 515.27> 940 220<213.277 292.181>
LayerCount: 2
Fore
SplineSet
0 400 m 0
 0 695 150 800 370 800 c 1
 1160 800 l 9
 1160 600 l 17
 370 600 l 1
 290 600 220 550 220 400 c 0
 220 250 290 200 370 200 c 1
 875 200 l 1
 913 200 940 224 940 253 c 0
 940 281 913 305 875 305 c 1
 320 305 l 9
 320 495 l 17
 875 495 l 1
 1056 495 1160 373 1160 253 c 0
 1160 170 1092 0 875 0 c 1
 370 0 l 1
 150 0 0 106 0 400 c 0
EndSplineSet
Validated: 1
EndChar

StartChar: h
Encoding: 104 104 46
Width: 850
Flags: W
HStem: 0 21G<0 220 580 800> 300 200<220 580> 780 20G<0 220 580 800>
VStem: 0 220<0 300 500 800> 580 220<0 300 500 800>
LayerCount: 2
Fore
SplineSet
0 0 m 1
 0 800 l 1
 220 800 l 1
 220 500 l 1
 580 500 l 1
 580 800 l 1
 800 800 l 1
 800 0 l 1
 580 0 l 1
 580 300 l 1
 220 300 l 1
 220 0 l 1
 0 0 l 1
EndSplineSet
Validated: 1
EndChar

StartChar: i
Encoding: 105 105 47
Width: 270
Flags: W
HStem: 0 21G<0 220> 780 20G<0 220>
VStem: 0 220<0 800>
LayerCount: 2
Fore
SplineSet
0 0 m 1
 0 800 l 1
 220 800 l 1
 220 0 l 1
 0 0 l 1
EndSplineSet
Validated: 1
EndChar

StartChar: j
Encoding: 106 106 48
Width: 820
Flags: W
HStem: 0 200<0 506.434> 780 20G<550 770>
VStem: 550 220<246.813 800>
LayerCount: 2
Fore
SplineSet
0 0 m 25
 0 200 l 25
 440 200 l 17
 501 200 550 245 550 300 c 1
 550 800 l 1
 770 800 l 25
 770 300 l 17
 770 134 622 0 440 0 c 9
 0 0 l 25
EndSplineSet
Validated: 1
EndChar

StartChar: k
Encoding: 107 107 49
Width: 850
Flags: W
HStem: 0 21G<0 220 580 800> 300 200<220 538.018> 780 20G<0 220 580 800>
VStem: 0 220<0 300 500 800> 580 220<0 259.69 540.31 800>
LayerCount: 2
Fore
SplineSet
0 0 m 1
 0 800 l 1
 220 800 l 1
 220 500 l 1
 470 500 l 2
 531 500 580 545 580 600 c 2
 580 800 l 1
 800 800 l 1
 800 600 l 2
 800 523 768 453 716 400 c 1
 768 347 800 277 800 200 c 2
 800 0 l 1
 580 0 l 1
 580 200 l 2
 580 255 531 300 470 300 c 2
 220 300 l 1
 220 0 l 1
 0 0 l 1
EndSplineSet
Validated: 1
EndChar

StartChar: l
Encoding: 108 108 50
Width: 820
Flags: W
HStem: 0 200<263.566 770> 780 20G<0 220>
VStem: 0 220<246.813 800>
LayerCount: 2
Fore
SplineSet
0 300 m 9
 0 800 l 25
 220 800 l 1
 220 300 l 1
 220 245 269 200 330 200 c 9
 770 200 l 25
 770 0 l 25
 330 0 l 17
 148 0 0 134 0 300 c 9
EndSplineSet
Validated: 1
EndChar

StartChar: m
Encoding: 109 109 51
Width: 1380
Flags: W
HStem: 0 14<346.175 411.825> 48 20<346.744 406> 95 20<372 406> 192 14<346.175 411.825> 580 220<305.115 466.543 863.457 1024.89>
VStem: 0 220<0 492.697> 276 14<70.1748 135.825> 310 33<125 158> 318 28<68.2713 94.5793> 406 28<68 95 115 158> 468 14<70.1748 135.825> 555 220<0 493.593> 1110 220<0 492.697>
DStem2: 343 158 310 158 0.558853 -0.829266<0 37.0285>
LayerCount: 2
Fore
SplineSet
434 158 m 1xff78
 434 48 l 1
 364 48 l 2
 335 48 318 56 318 82 c 0xfef8
 318 99 329 108 341 112 c 1
 310 158 l 1
 343 158 l 1
 372 115 l 1
 406 115 l 1
 406 158 l 1
 434 158 l 1xff78
406 95 m 1
 364 95 l 2
 351 95 346 87 346 82 c 0
 346 75 350 68 364 68 c 2
 406 68 l 1
 406 95 l 1
379 192 m 0
 330 192 290 152 290 103 c 0
 290 54 330 14 379 14 c 0
 428 14 468 54 468 103 c 0
 468 152 428 192 379 192 c 0
379 206 m 0
 436 206 482 160 482 103 c 0
 482 46 436 0 379 0 c 0
 322 0 276 46 276 103 c 0
 276 160 322 206 379 206 c 0
0 0 m 1
 0 415 l 2
 0 628 172 800 385 800 c 0
 494 800 594 755 665 682 c 1
 736 755 836 800 945 800 c 0
 1158 800 1330 628 1330 415 c 2
 1330 0 l 1
 1110 0 l 1
 1110 415 l 2
 1110 506 1036 580 945 580 c 0
 854 580 775 506 775 415 c 2
 775 0 l 1
 555 0 l 1
 555 415 l 2
 555 506 476 580 385 580 c 0
 294 580 220 506 220 415 c 2
 220 0 l 1
 0 0 l 1
EndSplineSet
Validated: 1
EndChar

StartChar: n
Encoding: 110 110 52
Width: 820
Flags: W
HStem: 0 14<352.175 417.825> 48 20<352.744 412> 95 20<378 412> 192 14<352.175 417.825> 600 200<305.115 464.885>
VStem: 0 220<0 511.341> 282 14<70.1748 135.825> 316 33<125 158> 324 28<68.2713 94.5793> 412 28<68 95 115 158> 474 14<70.1748 135.825> 550 220<0 511.341>
DStem2: 349 158 316 158 0.558853 -0.829266<0 37.0285>
CounterMasks: 1 38
LayerCount: 2
Fore
SplineSet
440 158 m 1xff70
 440 48 l 1
 370 48 l 2
 341 48 324 56 324 82 c 0xfef0
 324 99 335 108 347 112 c 1
 316 158 l 1
 349 158 l 1
 378 115 l 1
 412 115 l 1
 412 158 l 1
 440 158 l 1xff70
412 95 m 1
 370 95 l 2
 357 95 352 87 352 82 c 0
 352 75 356 68 370 68 c 2
 412 68 l 1
 412 95 l 1
385 192 m 0
 336 192 296 152 296 103 c 0
 296 54 336 14 385 14 c 0
 434 14 474 54 474 103 c 0
 474 152 434 192 385 192 c 0
385 206 m 0
 442 206 488 160 488 103 c 0
 488 46 442 0 385 0 c 0
 328 0 282 46 282 103 c 0
 282 160 328 206 385 206 c 0
0 0 m 25
 0 415 l 17
 0 628 172 800 385 800 c 0
 598 800 770 628 770 415 c 9
 770 0 l 25
 550 0 l 25
 550 435 l 17
 550 526 476 600 385 600 c 0
 294 600 220 526 220 435 c 9
 220 0 l 25
 0 0 l 25
EndSplineSet
Validated: 1
EndChar

StartChar: o
Encoding: 111 111 53
Width: 1210
Flags: W
HStem: 0 200<290.938 869.062> 600 200<290.938 869.062>
VStem: 0 220<284.73 515.114> 940 220<284.73 515.114>
LayerCount: 2
Fore
SplineSet
220 400 m 0
 220 250 290 200 370 200 c 1
 790 200 l 1
 870 200 940 250 940 400 c 0
 940 550 870 600 790 600 c 1
 370 600 l 1
 290 600 220 550 220 400 c 0
0 400 m 0
 0 694 150 800 370 800 c 1
 790 800 l 1
 1010 800 1160 694 1160 400 c 0
 1160 105 1010 0 790 0 c 1
 370 0 l 1
 150 0 0 105 0 400 c 0
EndSplineSet
Validated: 1
EndChar

StartChar: p
Encoding: 112 112 54
Width: 1160
Flags: W
HStem: 0 21G<0 220> 200 200<270 846.434> 600 200<263.566 846.434>
VStem: 0 220<0 553.187> 890 220<443.54 556.46>
LayerCount: 2
Fore
SplineSet
0 0 m 25
 0 500 l 17
 0 666 148 800 330 800 c 1
 780 800 l 1
 962 800 1110 666 1110 500 c 1
 1110 334 962 200 780 200 c 9
 270 200 l 25
 270 400 l 25
 780 400 l 17
 841 400 890 445 890 500 c 1
 890 555 841 600 780 600 c 1
 330 600 l 1
 269 600 220 555 220 500 c 1
 220 0 l 1
 0 0 l 25
EndSplineSet
Validated: 1
EndChar

StartChar: q
Encoding: 113 113 55
Width: 1210
Flags: W
HStem: 0 200<0 142 400.409 869.062> 600 200<400.938 869.062>
VStem: 110 220<281.931 515.114> 940 220<284.73 515.114>
LayerCount: 2
Fore
SplineSet
0 0 m 1
 0 200 l 1
 142 200 l 1
 121 254 110 320 110 400 c 0
 110 694 260 800 480 800 c 2
 790 800 l 2
 1010 800 1160 694 1160 400 c 0
 1160 105 1010 0 790 0 c 2
 0 0 l 1
480 200 m 1
 790 200 l 2
 870 200 940 250 940 400 c 0
 940 550 870 600 790 600 c 2
 480 600 l 2
 400 600 330 550 330 400 c 0
 330 250 400 200 480 200 c 1
EndSplineSet
Validated: 1
EndChar

StartChar: r
Encoding: 114 114 56
Width: 1160
Flags: W
HStem: 0 170<507.644 1110> 280 200<505.162 868.411> 600 200<263.566 873.025>
VStem: 0 220<0 553.187> 270 220<183.945 266.131> 890 220<497.075 582.618>
LayerCount: 2
Fore
SplineSet
0 0 m 25
 0 500 l 17
 0 666 148 800 330 800 c 1
 840 800 l 1
 1022 800 1110 664 1110 540 c 1
 1110 388 994 280 840 280 c 1
 545 280 l 1
 518 280 490 255 490 225 c 1
 490 195 518 170 545 170 c 1
 1110 170 l 1
 1110 0 l 1
 530 0 l 1
 368 0 270 123 270 240 c 1
 270 375 397 480 530 480 c 1
 820 480 l 1
 865 480 890 510 890 540 c 1
 890 570 865 600 820 600 c 1
 330 600 l 1
 269 600 220 555 220 500 c 1
 220 0 l 1
 0 0 l 25
EndSplineSet
Validated: 1
EndChar

StartChar: s
Encoding: 115 115 57
Width: 890
Flags: W
HStem: 0 170<0 602.356> 280 200<241.589 604.838> 600 200<236.975 840>
VStem: 0 220<497.075 582.618> 620 220<183.945 266.131>
LayerCount: 2
Fore
SplineSet
0 0 m 1
 0 170 l 1
 565 170 l 1
 592 170 620 195 620 225 c 1
 620 255 592 280 565 280 c 1
 270 280 l 1
 116 280 0 388 0 540 c 1
 0 664 88 800 270 800 c 1
 840 800 l 9
 840 600 l 17
 290 600 l 1
 245 600 220 570 220 540 c 1
 220 510 245 480 290 480 c 1
 580 480 l 1
 713 480 840 375 840 240 c 1
 840 123 742 0 580 0 c 1
 0 0 l 1
EndSplineSet
Validated: 1
EndChar

StartChar: t
Encoding: 116 116 58
Width: 850
Flags: W
HStem: 0 21G<290 510> 600 200<0 290 510 800>
VStem: 290 220<0 600>
LayerCount: 2
Fore
SplineSet
0 600 m 1
 0 800 l 1
 800 800 l 1
 800 600 l 1
 510 600 l 1
 510 0 l 1
 290 0 l 1
 290 600 l 1
 0 600 l 1
EndSplineSet
Validated: 1
EndChar

StartChar: u
Encoding: 117 117 59
Width: 820
Flags: W
HStem: 0 200<305.115 464.885> 594 14<352.175 417.825> 685 20<358 392> 732 20<358 417.256> 786 14<352.175 417.825>
VStem: 0 220<288.659 800> 282 14<664.175 729.825> 330 28<642 685 705 732> 418 28<705.421 731.729> 421 33<642 675> 474 14<664.175 729.825> 550 220<288.659 800>
DStem2: 423 688 392 685 0.558853 -0.829266<0 37.0285>
CounterMasks: 1 38
LayerCount: 2
Fore
SplineSet
330 642 m 1xff70
 330 752 l 1
 400 752 l 2
 429 752 446 744 446 718 c 0xffb0
 446 701 435 692 423 688 c 1
 454 642 l 1
 421 642 l 1
 392 685 l 1
 358 685 l 1
 358 642 l 1
 330 642 l 1xff70
358 705 m 1
 400 705 l 2
 413 705 418 713 418 718 c 0
 418 725 414 732 400 732 c 2
 358 732 l 1
 358 705 l 1
385 608 m 0
 434 608 474 648 474 697 c 0
 474 746 434 786 385 786 c 0
 336 786 296 746 296 697 c 0
 296 648 336 608 385 608 c 0
385 594 m 0
 328 594 282 640 282 697 c 0
 282 754 328 800 385 800 c 0
 442 800 488 754 488 697 c 0
 488 640 442 594 385 594 c 0
0 385 m 9
 0 800 l 25
 220 800 l 25
 220 365 l 17
 220 274 294 200 385 200 c 0
 476 200 550 274 550 365 c 9
 550 800 l 25
 770 800 l 25
 770 385 l 17
 770 172 598 0 385 0 c 0
 172 0 0 172 0 385 c 9
EndSplineSet
Validated: 1
EndChar

StartChar: v
Encoding: 118 118 60
Width: 820
Flags: W
HStem: 0 200<305.115 464.885> 780 20G<0 220 550 770> 780 20G<0 220 550 770>
VStem: 0 220<288.659 800> 550 220<288.659 800>
LayerCount: 2
Fore
SplineSet
0 385 m 9xd8
 0 800 l 25
 220 800 l 25
 220 365 l 17
 220 274 294 200 385 200 c 0
 476 200 550 274 550 365 c 9
 550 800 l 25
 770 800 l 25
 770 385 l 17
 770 172 598 0 385 0 c 0
 172 0 0 172 0 385 c 9xd8
EndSplineSet
Validated: 1
EndChar

StartChar: w
Encoding: 119 119 61
Width: 1380
Flags: W
HStem: 0 220<305.115 466.543 863.457 1024.89> 594 14<918.175 983.825> 685 20<924 958> 732 20<924 983.256> 786 14<918.175 983.825>
VStem: 0 220<307.303 800> 555 220<306.407 800> 848 14<664.175 729.825> 896 28<642 685 705 732> 984 28<705.421 731.729> 987 33<642 675> 1040 14<664.175 729.825> 1110 220<307.303 800>
DStem2: 989 688 958 685 0.558853 -0.829266<0 37.0285>
LayerCount: 2
Fore
SplineSet
896 642 m 1xffb8
 896 752 l 1
 966 752 l 2
 995 752 1012 744 1012 718 c 0xffd8
 1012 701 1001 692 989 688 c 1
 1020 642 l 1
 987 642 l 1
 958 685 l 1
 924 685 l 1
 924 642 l 1
 896 642 l 1xffb8
924 705 m 1
 966 705 l 2
 979 705 984 713 984 718 c 0
 984 725 980 732 966 732 c 2
 924 732 l 1
 924 705 l 1
951 608 m 0
 1000 608 1040 648 1040 697 c 0
 1040 746 1000 786 951 786 c 0
 902 786 862 746 862 697 c 0
 862 648 902 608 951 608 c 0
951 594 m 0
 894 594 848 640 848 697 c 0
 848 754 894 800 951 800 c 0
 1008 800 1054 754 1054 697 c 0
 1054 640 1008 594 951 594 c 0
0 385 m 2
 0 800 l 1
 220 800 l 1
 220 385 l 2
 220 294 294 220 385 220 c 0
 476 220 555 294 555 385 c 2
 555 800 l 1
 775 800 l 1
 775 385 l 2
 775 294 854 220 945 220 c 0
 1036 220 1110 294 1110 385 c 2
 1110 800 l 1
 1330 800 l 1
 1330 385 l 2
 1330 172 1158 0 945 0 c 0
 836 0 736 45 665 118 c 1
 594 45 494 0 385 0 c 0
 172 0 0 172 0 385 c 2
EndSplineSet
Validated: 1
EndChar

StartChar: x
Encoding: 120 120 62
Width: 1210
Flags: W
HStem: 0 200<0 396.203 763.797 1160> 600 200<0 396.203 763.797 1160>
VStem: 470 220<282.877 517.123>
LayerCount: 2
Fore
SplineSet
0 0 m 1
 0 200 l 1
 320 200 l 2
 400 200 470 250 470 400 c 0
 470 550 400 600 320 600 c 2
 0 600 l 1
 0 800 l 1
 320 800 l 2
 426 800 515 775 580 717 c 1
 645 775 734 800 840 800 c 2
 1160 800 l 1
 1160 600 l 1
 840 600 l 2
 760 600 690 550 690 400 c 0
 690 250 760 200 840 200 c 2
 1160 200 l 1
 1160 0 l 1
 840 0 l 2
 734 0 645 24 580 82 c 1
 515 24 426 0 320 0 c 2
 0 0 l 1
EndSplineSet
Validated: 1
EndChar

StartChar: y
Encoding: 121 121 63
Width: 820
Flags: W
HStem: 0 392<302.927 467.073> 594 14<352.175 417.825> 685 20<358 392> 732 20<358 417.256> 786 14<352.175 417.825>
VStem: 0 220<481.99 800> 275 220<0 212.697> 282 14<664.175 729.825> 330 28<642 685 705 732> 418 28<705.421 731.729> 421 33<642 675> 474 14<664.175 729.825> 550 220<481.99 800>
DStem2: 423 688 392 685 0.558853 -0.829266<0 37.0285>
LayerCount: 2
Fore
SplineSet
330 642 m 1xfca8
 330 752 l 1
 400 752 l 2
 429 752 446 744 446 718 c 0xfcc8
 446 701 435 692 423 688 c 1
 454 642 l 1
 421 642 l 1
 392 685 l 1
 358 685 l 1
 358 642 l 1
 330 642 l 1xfca8
358 705 m 1
 400 705 l 2
 413 705 418 713 418 718 c 0
 418 725 414 732 400 732 c 2
 358 732 l 1
 358 705 l 1
385 608 m 0
 434 608 474 648 474 697 c 0
 474 746 434 786 385 786 c 0
 336 786 296 746 296 697 c 0xfd18
 296 648 336 608 385 608 c 0
385 594 m 0
 328 594 282 640 282 697 c 0
 282 754 328 800 385 800 c 0
 442 800 488 754 488 697 c 0
 488 640 442 594 385 594 c 0
0 577 m 2
 0 800 l 1
 220 800 l 1
 220 557 l 2
 220 466 294 392 385 392 c 0
 476 392 550 466 550 557 c 2
 550 800 l 1
 770 800 l 1
 770 577 l 2
 770 402 654 255 495 208 c 1
 495 0 l 1
 275 0 l 1
 275 208 l 1xfe08
 116 255 0 402 0 577 c 2
EndSplineSet
Validated: 1
EndChar

StartChar: z
Encoding: 122 122 64
Width: 890
Flags: W
HStem: 0 170<237.644 840> 280 200<235.162 598.411> 600 200<0 603.025>
VStem: 0 220<183.945 266.131> 620 220<497.075 582.618>
LayerCount: 2
Fore
SplineSet
0 600 m 9
 0 800 l 17
 570 800 l 1
 752 800 840 664 840 540 c 1
 840 388 724 280 570 280 c 1
 275 280 l 1
 248 280 220 255 220 225 c 1
 220 195 248 170 275 170 c 1
 840 170 l 1
 840 0 l 1
 260 0 l 1
 98 0 0 123 0 240 c 1
 0 375 127 480 260 480 c 1
 550 480 l 1
 595 480 620 510 620 540 c 1
 620 570 595 600 550 600 c 1
 0 600 l 9
EndSplineSet
Validated: 1
EndChar

StartChar: quotesingle
Encoding: 39 39 65
Width: 270
Flags: W
HStem: 480 320<0 220>
VStem: 0 220<480 800>
LayerCount: 2
Fore
SplineSet
0 480 m 1
 0 800 l 1
 220 800 l 1
 220 480 l 1
 0 480 l 1
EndSplineSet
Validated: 1
EndChar

StartChar: hyphen
Encoding: 45 45 66
Width: 450
Flags: W
HStem: 300 200<0 400>
LayerCount: 2
Fore
SplineSet
0 300 m 1
 0 500 l 1
 400 500 l 1
 400 300 l 1
 0 300 l 1
EndSplineSet
Validated: 1
EndChar

StartChar: exclam
Encoding: 33 33 68
Width: 270
Flags: W
HStem: 0 200<0 220> 780 20G<0 220>
VStem: 0 220<0 200 250 800>
LayerCount: 2
Fore
SplineSet
0 250 m 1
 0 800 l 1
 220 800 l 1
 220 250 l 1
 0 250 l 1
0 0 m 1
 0 200 l 1
 220 200 l 1
 220 0 l 1
 0 0 l 1
EndSplineSet
Validated: 1
EndChar

StartChar: question
Encoding: 63 63 69
Width: 890
Flags: W
HStem: 0 200<0 220> 280 200<221.36 598.411> 600 200<0 603.025>
VStem: 0 220<0 200 250 277.894> 620 220<497.075 582.618>
LayerCount: 2
Fore
SplineSet
0 0 m 1
 0 200 l 1
 220 200 l 1
 220 0 l 1
 0 0 l 1
0 250 m 1
 0 370 128 480 250 480 c 1
 550 480 l 1
 595 480 620 510 620 540 c 1
 620 570 595 600 550 600 c 1
 0 600 l 9
 0 800 l 17
 570 800 l 1
 752 800 840 664 840 540 c 1
 840 388 724 280 570 280 c 1
 250 280 l 1
 237 280 220 270 220 250 c 1
 0 250 l 1
EndSplineSet
Validated: 1
EndChar

StartChar: questiondown
Encoding: 191 191 70
Width: 890
Flags: W
HStem: 0 200<236.975 840> 320 200<241.589 618.64> 600 200<620 840>
VStem: 0 220<217.382 302.925> 620 220<522.106 550 600 800>
LayerCount: 2
Fore
SplineSet
620 600 m 1
 620 800 l 1
 840 800 l 1
 840 600 l 1
 620 600 l 1
0 260 m 1
 0 412 116 520 270 520 c 1
 590 520 l 1
 603 520 620 530 620 550 c 1
 840 550 l 1
 840 430 712 320 590 320 c 1
 290 320 l 1
 245 320 220 290 220 260 c 1
 220 230 245 200 290 200 c 1
 840 200 l 9
 840 0 l 17
 270 0 l 1
 88 0 0 136 0 260 c 1
EndSplineSet
Validated: 1
EndChar

StartChar: exclamdown
Encoding: 161 161 71
Width: 270
Flags: W
HStem: 0 21G<0 220> 600 200<0 220>
VStem: 0 220<0 550 600 800>
LayerCount: 2
Fore
SplineSet
0 0 m 1
 0 550 l 1
 220 550 l 1
 220 0 l 1
 0 0 l 1
0 600 m 1
 0 800 l 1
 220 800 l 1
 220 600 l 1
 0 600 l 1
EndSplineSet
Validated: 1
EndChar

StartChar: quoteright
Encoding: 8217 8217 72
Width: 270
Flags: W
HStem: 480 320<0 220>
VStem: 0 220<480 800>
LayerCount: 2
Fore
SplineSet
0 480 m 1
 0 800 l 1
 220 800 l 1
 220 480 l 1
 0 480 l 1
EndSplineSet
Validated: 1
EndChar

StartChar: Agrave
Encoding: 192 192 73
Width: 1210
Flags: W
HStem: 0 200<236.83 869.062> 305 190<236.146 840> 600 200<0 869.062>
VStem: 0 220<213.277 292.181> 940 220<284.886 515.27>
LayerCount: 2
Fore
SplineSet
0 600 m 9
 0 800 l 17
 790 800 l 1
 1010 800 1160 695 1160 400 c 0
 1160 106 1010 0 790 0 c 1
 285 0 l 1
 68 0 0 170 0 253 c 0
 0 373 104 495 285 495 c 1
 840 495 l 9
 840 305 l 17
 285 305 l 1
 247 305 220 281 220 253 c 0
 220 224 247 200 285 200 c 1
 790 200 l 1
 870 200 940 250 940 400 c 0
 940 550 870 600 790 600 c 1
 0 600 l 9
EndSplineSet
Validated: 1
EndChar

StartChar: Aacute
Encoding: 193 193 74
Width: 1210
Flags: W
HStem: 0 200<236.83 869.062> 305 190<236.146 840> 600 200<0 869.062>
VStem: 0 220<213.277 292.181> 940 220<284.886 515.27>
LayerCount: 2
Fore
SplineSet
0 600 m 9
 0 800 l 17
 790 800 l 1
 1010 800 1160 695 1160 400 c 0
 1160 106 1010 0 790 0 c 1
 285 0 l 1
 68 0 0 170 0 253 c 0
 0 373 104 495 285 495 c 1
 840 495 l 9
 840 305 l 17
 285 305 l 1
 247 305 220 281 220 253 c 0
 220 224 247 200 285 200 c 1
 790 200 l 1
 870 200 940 250 940 400 c 0
 940 550 870 600 790 600 c 1
 0 600 l 9
EndSplineSet
Validated: 1
EndChar

StartChar: Acircumflex
Encoding: 194 194 75
Width: 1210
Flags: W
HStem: 0 200<236.83 869.062> 305 190<236.146 840> 600 200<0 869.062>
VStem: 0 220<213.277 292.181> 940 220<284.886 515.27>
LayerCount: 2
Fore
SplineSet
0 600 m 9
 0 800 l 17
 790 800 l 1
 1010 800 1160 695 1160 400 c 0
 1160 106 1010 0 790 0 c 1
 285 0 l 1
 68 0 0 170 0 253 c 0
 0 373 104 495 285 495 c 1
 840 495 l 9
 840 305 l 17
 285 305 l 1
 247 305 220 281 220 253 c 0
 220 224 247 200 285 200 c 1
 790 200 l 1
 870 200 940 250 940 400 c 0
 940 550 870 600 790 600 c 1
 0 600 l 9
EndSplineSet
Validated: 1
EndChar

StartChar: Atilde
Encoding: 195 195 76
Width: 1210
Flags: W
HStem: 0 200<236.83 869.062> 305 190<236.146 840> 600 200<0 869.062>
VStem: 0 220<213.277 292.181> 940 220<284.886 515.27>
LayerCount: 2
Fore
SplineSet
0 600 m 9
 0 800 l 17
 790 800 l 1
 1010 800 1160 695 1160 400 c 0
 1160 106 1010 0 790 0 c 1
 285 0 l 1
 68 0 0 170 0 253 c 0
 0 373 104 495 285 495 c 1
 840 495 l 9
 840 305 l 17
 285 305 l 1
 247 305 220 281 220 253 c 0
 220 224 247 200 285 200 c 1
 790 200 l 1
 870 200 940 250 940 400 c 0
 940 550 870 600 790 600 c 1
 0 600 l 9
EndSplineSet
Validated: 1
EndChar

StartChar: Adieresis
Encoding: 196 196 77
Width: 1210
Flags: W
HStem: 0 200<236.83 869.062> 305 190<236.146 840> 600 200<0 869.062>
VStem: 0 220<213.277 292.181> 940 220<284.886 515.27>
LayerCount: 2
Fore
SplineSet
0 600 m 9
 0 800 l 17
 790 800 l 1
 1010 800 1160 695 1160 400 c 0
 1160 106 1010 0 790 0 c 1
 285 0 l 1
 68 0 0 170 0 253 c 0
 0 373 104 495 285 495 c 1
 840 495 l 9
 840 305 l 17
 285 305 l 1
 247 305 220 281 220 253 c 0
 220 224 247 200 285 200 c 1
 790 200 l 1
 870 200 940 250 940 400 c 0
 940 550 870 600 790 600 c 1
 0 600 l 9
EndSplineSet
Validated: 1
EndChar

StartChar: Aring
Encoding: 197 197 78
Width: 1210
Flags: W
HStem: 0 200<236.83 869.062> 305 190<236.146 840> 600 200<0 869.062>
VStem: 0 220<213.277 292.181> 940 220<284.886 515.27>
LayerCount: 2
Fore
SplineSet
0 600 m 9
 0 800 l 17
 790 800 l 1
 1010 800 1160 695 1160 400 c 0
 1160 106 1010 0 790 0 c 1
 285 0 l 1
 68 0 0 170 0 253 c 0
 0 373 104 495 285 495 c 1
 840 495 l 9
 840 305 l 17
 285 305 l 1
 247 305 220 281 220 253 c 0
 220 224 247 200 285 200 c 1
 790 200 l 1
 870 200 940 250 940 400 c 0
 940 550 870 600 790 600 c 1
 0 600 l 9
EndSplineSet
Validated: 1
EndChar

StartChar: Ccedilla
Encoding: 199 199 79
Width: 850
Flags: W
HStem: 0 200<290.938 800> 600 200<290.938 800>
VStem: 0 220<284.73 515.114>
LayerCount: 2
Fore
SplineSet
0 400 m 0
 0 694 150 800 370 800 c 1
 800 800 l 1
 800 600 l 1
 370 600 l 1
 290 600 220 550 220 400 c 0
 220 250 290 200 370 200 c 1
 800 200 l 1
 800 0 l 1
 370 0 l 1
 150 0 0 105 0 400 c 0
EndSplineSet
Validated: 1
EndChar

StartChar: Egrave
Encoding: 200 200 80
Width: 1210
Flags: W
HStem: 0 200<290.938 1160> 305 190<320 923.854> 600 200<290.938 923.17>
VStem: 0 220<284.73 515.114> 940 220<507.819 586.723>
LayerCount: 2
Fore
SplineSet
0 400 m 0
 0 694 150 800 370 800 c 1
 875 800 l 1
 1092 800 1160 630 1160 547 c 0
 1160 427 1056 305 875 305 c 1
 320 305 l 9
 320 495 l 17
 875 495 l 1
 913 495 940 519 940 547 c 0
 940 576 913 600 875 600 c 1
 370 600 l 1
 290 600 220 550 220 400 c 0
 220 250 290 200 370 200 c 1
 1160 200 l 9
 1160 0 l 17
 370 0 l 1
 150 0 0 105 0 400 c 0
EndSplineSet
Validated: 1
EndChar

StartChar: Eacute
Encoding: 201 201 81
Width: 1210
Flags: W
HStem: 0 200<290.938 1160> 305 190<320 923.854> 600 200<290.938 923.17>
VStem: 0 220<284.73 515.114> 940 220<507.819 586.723>
LayerCount: 2
Fore
SplineSet
0 400 m 0
 0 694 150 800 370 800 c 1
 875 800 l 1
 1092 800 1160 630 1160 547 c 0
 1160 427 1056 305 875 305 c 1
 320 305 l 9
 320 495 l 17
 875 495 l 1
 913 495 940 519 940 547 c 0
 940 576 913 600 875 600 c 1
 370 600 l 1
 290 600 220 550 220 400 c 0
 220 250 290 200 370 200 c 1
 1160 200 l 9
 1160 0 l 17
 370 0 l 1
 150 0 0 105 0 400 c 0
EndSplineSet
Validated: 1
EndChar

StartChar: Ecircumflex
Encoding: 202 202 82
Width: 1210
Flags: W
HStem: 0 200<290.938 1160> 305 190<320 923.854> 600 200<290.938 923.17>
VStem: 0 220<284.73 515.114> 940 220<507.819 586.723>
LayerCount: 2
Fore
SplineSet
0 400 m 0
 0 694 150 800 370 800 c 1
 875 800 l 1
 1092 800 1160 630 1160 547 c 0
 1160 427 1056 305 875 305 c 1
 320 305 l 9
 320 495 l 17
 875 495 l 1
 913 495 940 519 940 547 c 0
 940 576 913 600 875 600 c 1
 370 600 l 1
 290 600 220 550 220 400 c 0
 220 250 290 200 370 200 c 1
 1160 200 l 9
 1160 0 l 17
 370 0 l 1
 150 0 0 105 0 400 c 0
EndSplineSet
Validated: 1
EndChar

StartChar: Edieresis
Encoding: 203 203 83
Width: 1210
Flags: W
HStem: 0 200<290.938 1160> 305 190<320 923.854> 600 200<290.938 923.17>
VStem: 0 220<284.73 515.114> 940 220<507.819 586.723>
LayerCount: 2
Fore
SplineSet
0 400 m 0
 0 694 150 800 370 800 c 1
 875 800 l 1
 1092 800 1160 630 1160 547 c 0
 1160 427 1056 305 875 305 c 1
 320 305 l 9
 320 495 l 17
 875 495 l 1
 913 495 940 519 940 547 c 0
 940 576 913 600 875 600 c 1
 370 600 l 1
 290 600 220 550 220 400 c 0
 220 250 290 200 370 200 c 1
 1160 200 l 9
 1160 0 l 17
 370 0 l 1
 150 0 0 105 0 400 c 0
EndSplineSet
Validated: 1
EndChar

StartChar: Igrave
Encoding: 204 204 84
Width: 270
Flags: W
HStem: 0 21G<0 220> 780 20G<0 220>
VStem: 0 220<0 800>
LayerCount: 2
Fore
SplineSet
0 0 m 1
 0 800 l 1
 220 800 l 1
 220 0 l 1
 0 0 l 1
EndSplineSet
Validated: 1
EndChar

StartChar: Iacute
Encoding: 205 205 85
Width: 270
Flags: W
HStem: 0 21G<0 220> 780 20G<0 220>
VStem: 0 220<0 800>
LayerCount: 2
Fore
SplineSet
0 0 m 1
 0 800 l 1
 220 800 l 1
 220 0 l 1
 0 0 l 1
EndSplineSet
Validated: 1
EndChar

StartChar: Icircumflex
Encoding: 206 206 86
Width: 270
Flags: W
HStem: 0 21G<0 220> 780 20G<0 220>
VStem: 0 220<0 800>
LayerCount: 2
Fore
SplineSet
0 0 m 1
 0 800 l 1
 220 800 l 1
 220 0 l 1
 0 0 l 1
EndSplineSet
Validated: 1
EndChar

StartChar: Idieresis
Encoding: 207 207 87
Width: 270
Flags: W
HStem: 0 21G<0 220> 780 20G<0 220>
VStem: 0 220<0 800>
LayerCount: 2
Fore
SplineSet
0 0 m 1
 0 800 l 1
 220 800 l 1
 220 0 l 1
 0 0 l 1
EndSplineSet
Validated: 1
EndChar

StartChar: Ntilde
Encoding: 209 209 88
Width: 820
Flags: W
HStem: 0 14<352.175 417.825> 48 20<352.744 412> 95 20<378 412> 192 14<352.175 417.825> 600 200<305.115 464.885>
VStem: 0 220<0 511.341> 282 14<70.1748 135.825> 316 33<125 158> 324 28<68.2713 94.5793> 412 28<68 95 115 158> 474 14<70.1748 135.825> 550 220<0 511.341>
DStem2: 349 158 316 158 0.558853 -0.829266<0 37.0285>
LayerCount: 2
Fore
SplineSet
440 158 m 1xff70
 440 48 l 1
 370 48 l 2
 341 48 324 56 324 82 c 0xfef0
 324 99 335 108 347 112 c 1
 316 158 l 1
 349 158 l 1
 378 115 l 1
 412 115 l 1
 412 158 l 1
 440 158 l 1xff70
412 95 m 1
 370 95 l 2
 357 95 352 87 352 82 c 0
 352 75 356 68 370 68 c 2
 412 68 l 1
 412 95 l 1
385 192 m 0
 336 192 296 152 296 103 c 0
 296 54 336 14 385 14 c 0
 434 14 474 54 474 103 c 0
 474 152 434 192 385 192 c 0
385 206 m 0
 442 206 488 160 488 103 c 0
 488 46 442 0 385 0 c 0
 328 0 282 46 282 103 c 0
 282 160 328 206 385 206 c 0
0 0 m 25
 0 415 l 17
 0 628 172 800 385 800 c 0
 598 800 770 628 770 415 c 9
 770 0 l 25
 550 0 l 25
 550 435 l 17
 550 526 476 600 385 600 c 0
 294 600 220 526 220 435 c 9
 220 0 l 25
 0 0 l 25
EndSplineSet
Validated: 1
EndChar

StartChar: Ograve
Encoding: 210 210 89
Width: 1210
Flags: W
HStem: 0 200<290.938 869.062> 600 200<290.938 869.062>
VStem: 0 220<284.73 515.114> 940 220<284.73 515.114>
LayerCount: 2
Fore
SplineSet
220 400 m 0
 220 250 290 200 370 200 c 1
 790 200 l 1
 870 200 940 250 940 400 c 0
 940 550 870 600 790 600 c 1
 370 600 l 1
 290 600 220 550 220 400 c 0
0 400 m 0
 0 694 150 800 370 800 c 1
 790 800 l 1
 1010 800 1160 694 1160 400 c 0
 1160 105 1010 0 790 0 c 1
 370 0 l 1
 150 0 0 105 0 400 c 0
EndSplineSet
Validated: 1
EndChar

StartChar: Oacute
Encoding: 211 211 90
Width: 1210
Flags: W
HStem: 0 200<290.938 869.062> 600 200<290.938 869.062>
VStem: 0 220<284.73 515.114> 940 220<284.73 515.114>
LayerCount: 2
Fore
SplineSet
220 400 m 0
 220 250 290 200 370 200 c 1
 790 200 l 1
 870 200 940 250 940 400 c 0
 940 550 870 600 790 600 c 1
 370 600 l 1
 290 600 220 550 220 400 c 0
0 400 m 0
 0 694 150 800 370 800 c 1
 790 800 l 1
 1010 800 1160 694 1160 400 c 0
 1160 105 1010 0 790 0 c 1
 370 0 l 1
 150 0 0 105 0 400 c 0
EndSplineSet
Validated: 1
EndChar

StartChar: Ocircumflex
Encoding: 212 212 91
Width: 1210
Flags: W
HStem: 0 200<290.938 869.062> 600 200<290.938 869.062>
VStem: 0 220<284.73 515.114> 940 220<284.73 515.114>
LayerCount: 2
Fore
SplineSet
220 400 m 0
 220 250 290 200 370 200 c 1
 790 200 l 1
 870 200 940 250 940 400 c 0
 940 550 870 600 790 600 c 1
 370 600 l 1
 290 600 220 550 220 400 c 0
0 400 m 0
 0 694 150 800 370 800 c 1
 790 800 l 1
 1010 800 1160 694 1160 400 c 0
 1160 105 1010 0 790 0 c 1
 370 0 l 1
 150 0 0 105 0 400 c 0
EndSplineSet
Validated: 1
EndChar

StartChar: Otilde
Encoding: 213 213 92
Width: 1210
Flags: W
HStem: 0 200<290.938 869.062> 600 200<290.938 869.062>
VStem: 0 220<284.73 515.114> 940 220<284.73 515.114>
LayerCount: 2
Fore
SplineSet
220 400 m 0
 220 250 290 200 370 200 c 1
 790 200 l 1
 870 200 940 250 940 400 c 0
 940 550 870 600 790 600 c 1
 370 600 l 1
 290 600 220 550 220 400 c 0
0 400 m 0
 0 694 150 800 370 800 c 1
 790 800 l 1
 1010 800 1160 694 1160 400 c 0
 1160 105 1010 0 790 0 c 1
 370 0 l 1
 150 0 0 105 0 400 c 0
EndSplineSet
Validated: 1
EndChar

StartChar: Odieresis
Encoding: 214 214 93
Width: 1210
Flags: W
HStem: 0 200<290.938 869.062> 600 200<290.938 869.062>
VStem: 0 220<284.73 515.114> 940 220<284.73 515.114>
LayerCount: 2
Fore
SplineSet
220 400 m 0
 220 250 290 200 370 200 c 1
 790 200 l 1
 870 200 940 250 940 400 c 0
 940 550 870 600 790 600 c 1
 370 600 l 1
 290 600 220 550 220 400 c 0
0 400 m 0
 0 694 150 800 370 800 c 1
 790 800 l 1
 1010 800 1160 694 1160 400 c 0
 1160 105 1010 0 790 0 c 1
 370 0 l 1
 150 0 0 105 0 400 c 0
EndSplineSet
Validated: 1
EndChar

StartChar: Oslash
Encoding: 216 216 94
Width: 1210
Flags: W
HStem: 0 200<290.938 869.062> 600 200<290.938 869.062>
VStem: 0 220<284.73 515.114> 940 220<284.73 515.114>
LayerCount: 2
Fore
SplineSet
220 400 m 0
 220 250 290 200 370 200 c 1
 790 200 l 1
 870 200 940 250 940 400 c 0
 940 550 870 600 790 600 c 1
 370 600 l 1
 290 600 220 550 220 400 c 0
0 400 m 0
 0 694 150 800 370 800 c 1
 790 800 l 1
 1010 800 1160 694 1160 400 c 0
 1160 105 1010 0 790 0 c 1
 370 0 l 1
 150 0 0 105 0 400 c 0
EndSplineSet
Validated: 1
EndChar

StartChar: Ugrave
Encoding: 217 217 95
Width: 820
Flags: W
HStem: 0 200<305.115 464.885> 594 14<352.175 417.825> 685 20<358 392> 732 20<358 417.256> 786 14<352.175 417.825>
VStem: 0 220<288.659 800> 282 14<664.175 729.825> 330 28<642 685 705 732> 418 28<705.421 731.729> 421 33<642 675> 474 14<664.175 729.825> 550 220<288.659 800>
DStem2: 423 688 392 685 0.558853 -0.829266<0 37.0285>
LayerCount: 2
Fore
SplineSet
330 642 m 1xff70
 330 752 l 1
 400 752 l 2
 429 752 446 744 446 718 c 0xffb0
 446 701 435 692 423 688 c 1
 454 642 l 1
 421 642 l 1
 392 685 l 1
 358 685 l 1
 358 642 l 1
 330 642 l 1xff70
358 705 m 1
 400 705 l 2
 413 705 418 713 418 718 c 0
 418 725 414 732 400 732 c 2
 358 732 l 1
 358 705 l 1
385 608 m 0
 434 608 474 648 474 697 c 0
 474 746 434 786 385 786 c 0
 336 786 296 746 296 697 c 0
 296 648 336 608 385 608 c 0
385 594 m 0
 328 594 282 640 282 697 c 0
 282 754 328 800 385 800 c 0
 442 800 488 754 488 697 c 0
 488 640 442 594 385 594 c 0
0 385 m 9
 0 800 l 25
 220 800 l 25
 220 365 l 17
 220 274 294 200 385 200 c 0
 476 200 550 274 550 365 c 9
 550 800 l 25
 770 800 l 25
 770 385 l 17
 770 172 598 0 385 0 c 0
 172 0 0 172 0 385 c 9
EndSplineSet
Validated: 1
EndChar

StartChar: Uacute
Encoding: 218 218 96
Width: 820
Flags: W
HStem: 0 200<305.115 464.885> 594 14<352.175 417.825> 685 20<358 392> 732 20<358 417.256> 786 14<352.175 417.825>
VStem: 0 220<288.659 800> 282 14<664.175 729.825> 330 28<642 685 705 732> 418 28<705.421 731.729> 421 33<642 675> 474 14<664.175 729.825> 550 220<288.659 800>
DStem2: 423 688 392 685 0.558853 -0.829266<0 37.0285>
LayerCount: 2
Fore
SplineSet
330 642 m 1xff70
 330 752 l 1
 400 752 l 2
 429 752 446 744 446 718 c 0xffb0
 446 701 435 692 423 688 c 1
 454 642 l 1
 421 642 l 1
 392 685 l 1
 358 685 l 1
 358 642 l 1
 330 642 l 1xff70
358 705 m 1
 400 705 l 2
 413 705 418 713 418 718 c 0
 418 725 414 732 400 732 c 2
 358 732 l 1
 358 705 l 1
385 608 m 0
 434 608 474 648 474 697 c 0
 474 746 434 786 385 786 c 0
 336 786 296 746 296 697 c 0
 296 648 336 608 385 608 c 0
385 594 m 0
 328 594 282 640 282 697 c 0
 282 754 328 800 385 800 c 0
 442 800 488 754 488 697 c 0
 488 640 442 594 385 594 c 0
0 385 m 9
 0 800 l 25
 220 800 l 25
 220 365 l 17
 220 274 294 200 385 200 c 0
 476 200 550 274 550 365 c 9
 550 800 l 25
 770 800 l 25
 770 385 l 17
 770 172 598 0 385 0 c 0
 172 0 0 172 0 385 c 9
EndSplineSet
Validated: 1
EndChar

StartChar: Ucircumflex
Encoding: 219 219 97
Width: 820
Flags: W
HStem: 0 200<305.115 464.885> 594 14<352.175 417.825> 685 20<358 392> 732 20<358 417.256> 786 14<352.175 417.825>
VStem: 0 220<288.659 800> 282 14<664.175 729.825> 330 28<642 685 705 732> 418 28<705.421 731.729> 421 33<642 675> 474 14<664.175 729.825> 550 220<288.659 800>
DStem2: 423 688 392 685 0.558853 -0.829266<0 37.0285>
LayerCount: 2
Fore
SplineSet
330 642 m 1xff70
 330 752 l 1
 400 752 l 2
 429 752 446 744 446 718 c 0xffb0
 446 701 435 692 423 688 c 1
 454 642 l 1
 421 642 l 1
 392 685 l 1
 358 685 l 1
 358 642 l 1
 330 642 l 1xff70
358 705 m 1
 400 705 l 2
 413 705 418 713 418 718 c 0
 418 725 414 732 400 732 c 2
 358 732 l 1
 358 705 l 1
385 608 m 0
 434 608 474 648 474 697 c 0
 474 746 434 786 385 786 c 0
 336 786 296 746 296 697 c 0
 296 648 336 608 385 608 c 0
385 594 m 0
 328 594 282 640 282 697 c 0
 282 754 328 800 385 800 c 0
 442 800 488 754 488 697 c 0
 488 640 442 594 385 594 c 0
0 385 m 9
 0 800 l 25
 220 800 l 25
 220 365 l 17
 220 274 294 200 385 200 c 0
 476 200 550 274 550 365 c 9
 550 800 l 25
 770 800 l 25
 770 385 l 17
 770 172 598 0 385 0 c 0
 172 0 0 172 0 385 c 9
EndSplineSet
Validated: 1
EndChar

StartChar: Udieresis
Encoding: 220 220 98
Width: 820
Flags: W
HStem: 0 200<305.115 464.885> 594 14<352.175 417.825> 685 20<358 392> 732 20<358 417.256> 786 14<352.175 417.825>
VStem: 0 220<288.659 800> 282 14<664.175 729.825> 330 28<642 685 705 732> 418 28<705.421 731.729> 421 33<642 675> 474 14<664.175 729.825> 550 220<288.659 800>
DStem2: 423 688 392 685 0.558853 -0.829266<0 37.0285>
LayerCount: 2
Fore
SplineSet
330 642 m 1xff70
 330 752 l 1
 400 752 l 2
 429 752 446 744 446 718 c 0xffb0
 446 701 435 692 423 688 c 1
 454 642 l 1
 421 642 l 1
 392 685 l 1
 358 685 l 1
 358 642 l 1
 330 642 l 1xff70
358 705 m 1
 400 705 l 2
 413 705 418 713 418 718 c 0
 418 725 414 732 400 732 c 2
 358 732 l 1
 358 705 l 1
385 608 m 0
 434 608 474 648 474 697 c 0
 474 746 434 786 385 786 c 0
 336 786 296 746 296 697 c 0
 296 648 336 608 385 608 c 0
385 594 m 0
 328 594 282 640 282 697 c 0
 282 754 328 800 385 800 c 0
 442 800 488 754 488 697 c 0
 488 640 442 594 385 594 c 0
0 385 m 9
 0 800 l 25
 220 800 l 25
 220 365 l 17
 220 274 294 200 385 200 c 0
 476 200 550 274 550 365 c 9
 550 800 l 25
 770 800 l 25
 770 385 l 17
 770 172 598 0 385 0 c 0
 172 0 0 172 0 385 c 9
EndSplineSet
Validated: 1
EndChar

StartChar: Yacute
Encoding: 221 221 99
Width: 820
Flags: W
HStem: 0 392<302.927 467.073> 594 14<352.175 417.825> 685 20<358 392> 732 20<358 417.256> 786 14<352.175 417.825>
VStem: 0 220<481.99 800> 275 220<0 212.697> 282 14<664.175 729.825> 330 28<642 685 705 732> 418 28<705.421 731.729> 421 33<642 675> 474 14<664.175 729.825> 550 220<481.99 800>
DStem2: 423 688 392 685 0.558853 -0.829266<0 37.0285>
LayerCount: 2
Fore
SplineSet
330 642 m 1xfca8
 330 752 l 1
 400 752 l 2
 429 752 446 744 446 718 c 0xfcc8
 446 701 435 692 423 688 c 1
 454 642 l 1
 421 642 l 1
 392 685 l 1
 358 685 l 1
 358 642 l 1
 330 642 l 1xfca8
358 705 m 1
 400 705 l 2
 413 705 418 713 418 718 c 0
 418 725 414 732 400 732 c 2
 358 732 l 1
 358 705 l 1
385 608 m 0
 434 608 474 648 474 697 c 0
 474 746 434 786 385 786 c 0
 336 786 296 746 296 697 c 0xfd18
 296 648 336 608 385 608 c 0
385 594 m 0
 328 594 282 640 282 697 c 0
 282 754 328 800 385 800 c 0
 442 800 488 754 488 697 c 0
 488 640 442 594 385 594 c 0
0 577 m 2
 0 800 l 1
 220 800 l 1
 220 557 l 2
 220 466 294 392 385 392 c 0
 476 392 550 466 550 557 c 2
 550 800 l 1
 770 800 l 1
 770 577 l 2
 770 402 654 255 495 208 c 1
 495 0 l 1
 275 0 l 1
 275 208 l 1xfe08
 116 255 0 402 0 577 c 2
EndSplineSet
Validated: 1
EndChar

StartChar: agrave
Encoding: 224 224 100
Width: 1210
Flags: W
HStem: 0 200<236.83 869.062> 305 190<236.146 840> 600 200<0 869.062>
VStem: 0 220<213.277 292.181> 940 220<284.886 515.27>
LayerCount: 2
Fore
SplineSet
0 600 m 9
 0 800 l 17
 790 800 l 1
 1010 800 1160 695 1160 400 c 0
 1160 106 1010 0 790 0 c 1
 285 0 l 1
 68 0 0 170 0 253 c 0
 0 373 104 495 285 495 c 1
 840 495 l 9
 840 305 l 17
 285 305 l 1
 247 305 220 281 220 253 c 0
 220 224 247 200 285 200 c 1
 790 200 l 1
 870 200 940 250 940 400 c 0
 940 550 870 600 790 600 c 1
 0 600 l 9
EndSplineSet
Validated: 1
EndChar

StartChar: aacute
Encoding: 225 225 101
Width: 1210
Flags: W
HStem: 0 200<236.83 869.062> 305 190<236.146 840> 600 200<0 869.062>
VStem: 0 220<213.277 292.181> 940 220<284.886 515.27>
LayerCount: 2
Fore
SplineSet
0 600 m 9
 0 800 l 17
 790 800 l 1
 1010 800 1160 695 1160 400 c 0
 1160 106 1010 0 790 0 c 1
 285 0 l 1
 68 0 0 170 0 253 c 0
 0 373 104 495 285 495 c 1
 840 495 l 9
 840 305 l 17
 285 305 l 1
 247 305 220 281 220 253 c 0
 220 224 247 200 285 200 c 1
 790 200 l 1
 870 200 940 250 940 400 c 0
 940 550 870 600 790 600 c 1
 0 600 l 9
EndSplineSet
Validated: 1
EndChar

StartChar: acircumflex
Encoding: 226 226 102
Width: 1210
Flags: W
HStem: 0 200<236.83 869.062> 305 190<236.146 840> 600 200<0 869.062>
VStem: 0 220<213.277 292.181> 940 220<284.886 515.27>
LayerCount: 2
Fore
SplineSet
0 600 m 9
 0 800 l 17
 790 800 l 1
 1010 800 1160 695 1160 400 c 0
 1160 106 1010 0 790 0 c 1
 285 0 l 1
 68 0 0 170 0 253 c 0
 0 373 104 495 285 495 c 1
 840 495 l 9
 840 305 l 17
 285 305 l 1
 247 305 220 281 220 253 c 0
 220 224 247 200 285 200 c 1
 790 200 l 1
 870 200 940 250 940 400 c 0
 940 550 870 600 790 600 c 1
 0 600 l 9
EndSplineSet
Validated: 1
EndChar

StartChar: atilde
Encoding: 227 227 103
Width: 1210
Flags: W
HStem: 0 200<236.83 869.062> 305 190<236.146 840> 600 200<0 869.062>
VStem: 0 220<213.277 292.181> 940 220<284.886 515.27>
LayerCount: 2
Fore
SplineSet
0 600 m 9
 0 800 l 17
 790 800 l 1
 1010 800 1160 695 1160 400 c 0
 1160 106 1010 0 790 0 c 1
 285 0 l 1
 68 0 0 170 0 253 c 0
 0 373 104 495 285 495 c 1
 840 495 l 9
 840 305 l 17
 285 305 l 1
 247 305 220 281 220 253 c 0
 220 224 247 200 285 200 c 1
 790 200 l 1
 870 200 940 250 940 400 c 0
 940 550 870 600 790 600 c 1
 0 600 l 9
EndSplineSet
Validated: 1
EndChar

StartChar: adieresis
Encoding: 228 228 104
Width: 1210
Flags: W
HStem: 0 200<236.83 869.062> 305 190<236.146 840> 600 200<0 869.062>
VStem: 0 220<213.277 292.181> 940 220<284.886 515.27>
LayerCount: 2
Fore
SplineSet
0 600 m 9
 0 800 l 17
 790 800 l 1
 1010 800 1160 695 1160 400 c 0
 1160 106 1010 0 790 0 c 1
 285 0 l 1
 68 0 0 170 0 253 c 0
 0 373 104 495 285 495 c 1
 840 495 l 9
 840 305 l 17
 285 305 l 1
 247 305 220 281 220 253 c 0
 220 224 247 200 285 200 c 1
 790 200 l 1
 870 200 940 250 940 400 c 0
 940 550 870 600 790 600 c 1
 0 600 l 9
EndSplineSet
Validated: 1
EndChar

StartChar: aring
Encoding: 229 229 105
Width: 1210
Flags: W
HStem: 0 200<236.83 869.062> 305 190<236.146 840> 600 200<0 869.062>
VStem: 0 220<213.277 292.181> 940 220<284.886 515.27>
LayerCount: 2
Fore
SplineSet
0 600 m 9
 0 800 l 17
 790 800 l 1
 1010 800 1160 695 1160 400 c 0
 1160 106 1010 0 790 0 c 1
 285 0 l 1
 68 0 0 170 0 253 c 0
 0 373 104 495 285 495 c 1
 840 495 l 9
 840 305 l 17
 285 305 l 1
 247 305 220 281 220 253 c 0
 220 224 247 200 285 200 c 1
 790 200 l 1
 870 200 940 250 940 400 c 0
 940 550 870 600 790 600 c 1
 0 600 l 9
EndSplineSet
Validated: 1
EndChar

StartChar: ccedilla
Encoding: 231 231 106
Width: 850
Flags: W
HStem: 0 200<290.938 800> 600 200<290.938 800>
VStem: 0 220<284.73 515.114>
LayerCount: 2
Fore
SplineSet
0 400 m 0
 0 694 150 800 370 800 c 1
 800 800 l 1
 800 600 l 1
 370 600 l 1
 290 600 220 550 220 400 c 0
 220 250 290 200 370 200 c 1
 800 200 l 1
 800 0 l 1
 370 0 l 1
 150 0 0 105 0 400 c 0
EndSplineSet
Validated: 1
EndChar

StartChar: egrave
Encoding: 232 232 107
Width: 1210
Flags: W
HStem: 0 200<290.938 1160> 305 190<320 923.854> 600 200<290.938 923.17>
VStem: 0 220<284.73 515.114> 940 220<507.819 586.723>
LayerCount: 2
Fore
SplineSet
0 400 m 0
 0 694 150 800 370 800 c 1
 875 800 l 1
 1092 800 1160 630 1160 547 c 0
 1160 427 1056 305 875 305 c 1
 320 305 l 9
 320 495 l 17
 875 495 l 1
 913 495 940 519 940 547 c 0
 940 576 913 600 875 600 c 1
 370 600 l 1
 290 600 220 550 220 400 c 0
 220 250 290 200 370 200 c 1
 1160 200 l 9
 1160 0 l 17
 370 0 l 1
 150 0 0 105 0 400 c 0
EndSplineSet
Validated: 1
EndChar

StartChar: eacute
Encoding: 233 233 108
Width: 1210
Flags: W
HStem: 0 200<290.938 1160> 305 190<320 923.854> 600 200<290.938 923.17>
VStem: 0 220<284.73 515.114> 940 220<507.819 586.723>
LayerCount: 2
Fore
SplineSet
0 400 m 0
 0 694 150 800 370 800 c 1
 875 800 l 1
 1092 800 1160 630 1160 547 c 0
 1160 427 1056 305 875 305 c 1
 320 305 l 9
 320 495 l 17
 875 495 l 1
 913 495 940 519 940 547 c 0
 940 576 913 600 875 600 c 1
 370 600 l 1
 290 600 220 550 220 400 c 0
 220 250 290 200 370 200 c 1
 1160 200 l 9
 1160 0 l 17
 370 0 l 1
 150 0 0 105 0 400 c 0
EndSplineSet
Validated: 1
EndChar

StartChar: ecircumflex
Encoding: 234 234 109
Width: 1210
Flags: W
HStem: 0 200<290.938 1160> 305 190<320 923.854> 600 200<290.938 923.17>
VStem: 0 220<284.73 515.114> 940 220<507.819 586.723>
LayerCount: 2
Fore
SplineSet
0 400 m 0
 0 694 150 800 370 800 c 1
 875 800 l 1
 1092 800 1160 630 1160 547 c 0
 1160 427 1056 305 875 305 c 1
 320 305 l 9
 320 495 l 17
 875 495 l 1
 913 495 940 519 940 547 c 0
 940 576 913 600 875 600 c 1
 370 600 l 1
 290 600 220 550 220 400 c 0
 220 250 290 200 370 200 c 1
 1160 200 l 9
 1160 0 l 17
 370 0 l 1
 150 0 0 105 0 400 c 0
EndSplineSet
Validated: 1
EndChar

StartChar: edieresis
Encoding: 235 235 110
Width: 1210
Flags: W
HStem: 0 200<290.938 1160> 305 190<320 923.854> 600 200<290.938 923.17>
VStem: 0 220<284.73 515.114> 940 220<507.819 586.723>
LayerCount: 2
Fore
SplineSet
0 400 m 0
 0 694 150 800 370 800 c 1
 875 800 l 1
 1092 800 1160 630 1160 547 c 0
 1160 427 1056 305 875 305 c 1
 320 305 l 9
 320 495 l 17
 875 495 l 1
 913 495 940 519 940 547 c 0
 940 576 913 600 875 600 c 1
 370 600 l 1
 290 600 220 550 220 400 c 0
 220 250 290 200 370 200 c 1
 1160 200 l 9
 1160 0 l 17
 370 0 l 1
 150 0 0 105 0 400 c 0
EndSplineSet
Validated: 1
EndChar

StartChar: igrave
Encoding: 236 236 111
Width: 270
Flags: W
HStem: 0 21G<0 220> 780 20G<0 220>
VStem: 0 220<0 800>
LayerCount: 2
Fore
SplineSet
0 0 m 1
 0 800 l 1
 220 800 l 1
 220 0 l 1
 0 0 l 1
EndSplineSet
Validated: 1
EndChar

StartChar: iacute
Encoding: 237 237 112
Width: 270
Flags: W
HStem: 0 21G<0 220> 780 20G<0 220>
VStem: 0 220<0 800>
LayerCount: 2
Fore
SplineSet
0 0 m 1
 0 800 l 1
 220 800 l 1
 220 0 l 1
 0 0 l 1
EndSplineSet
Validated: 1
EndChar

StartChar: icircumflex
Encoding: 238 238 113
Width: 270
Flags: W
HStem: 0 21G<0 220> 780 20G<0 220>
VStem: 0 220<0 800>
LayerCount: 2
Fore
SplineSet
0 0 m 1
 0 800 l 1
 220 800 l 1
 220 0 l 1
 0 0 l 1
EndSplineSet
Validated: 1
EndChar

StartChar: idieresis
Encoding: 239 239 114
Width: 270
Flags: W
HStem: 0 21G<0 220> 780 20G<0 220>
VStem: 0 220<0 800>
LayerCount: 2
Fore
SplineSet
0 0 m 1
 0 800 l 1
 220 800 l 1
 220 0 l 1
 0 0 l 1
EndSplineSet
Validated: 1
EndChar

StartChar: ntilde
Encoding: 241 241 115
Width: 820
Flags: W
HStem: 0 14<352.175 417.825> 48 20<352.744 412> 95 20<378 412> 192 14<352.175 417.825> 600 200<305.115 464.885>
VStem: 0 220<0 511.341> 282 14<70.1748 135.825> 316 33<125 158> 324 28<68.2713 94.5793> 412 28<68 95 115 158> 474 14<70.1748 135.825> 550 220<0 511.341>
DStem2: 349 158 316 158 0.558853 -0.829266<0 37.0285>
LayerCount: 2
Fore
SplineSet
440 158 m 1xff70
 440 48 l 1
 370 48 l 2
 341 48 324 56 324 82 c 0xfef0
 324 99 335 108 347 112 c 1
 316 158 l 1
 349 158 l 1
 378 115 l 1
 412 115 l 1
 412 158 l 1
 440 158 l 1xff70
412 95 m 1
 370 95 l 2
 357 95 352 87 352 82 c 0
 352 75 356 68 370 68 c 2
 412 68 l 1
 412 95 l 1
385 192 m 0
 336 192 296 152 296 103 c 0
 296 54 336 14 385 14 c 0
 434 14 474 54 474 103 c 0
 474 152 434 192 385 192 c 0
385 206 m 0
 442 206 488 160 488 103 c 0
 488 46 442 0 385 0 c 0
 328 0 282 46 282 103 c 0
 282 160 328 206 385 206 c 0
0 0 m 25
 0 415 l 17
 0 628 172 800 385 800 c 0
 598 800 770 628 770 415 c 9
 770 0 l 25
 550 0 l 25
 550 435 l 17
 550 526 476 600 385 600 c 0
 294 600 220 526 220 435 c 9
 220 0 l 25
 0 0 l 25
EndSplineSet
Validated: 1
EndChar

StartChar: ograve
Encoding: 242 242 116
Width: 1210
Flags: W
HStem: 0 200<290.938 869.062> 600 200<290.938 869.062>
VStem: 0 220<284.73 515.114> 940 220<284.73 515.114>
LayerCount: 2
Fore
SplineSet
220 400 m 0
 220 250 290 200 370 200 c 1
 790 200 l 1
 870 200 940 250 940 400 c 0
 940 550 870 600 790 600 c 1
 370 600 l 1
 290 600 220 550 220 400 c 0
0 400 m 0
 0 694 150 800 370 800 c 1
 790 800 l 1
 1010 800 1160 694 1160 400 c 0
 1160 105 1010 0 790 0 c 1
 370 0 l 1
 150 0 0 105 0 400 c 0
EndSplineSet
Validated: 1
EndChar

StartChar: oacute
Encoding: 243 243 117
Width: 1210
Flags: W
HStem: 0 200<290.938 869.062> 600 200<290.938 869.062>
VStem: 0 220<284.73 515.114> 940 220<284.73 515.114>
LayerCount: 2
Fore
SplineSet
220 400 m 0
 220 250 290 200 370 200 c 1
 790 200 l 1
 870 200 940 250 940 400 c 0
 940 550 870 600 790 600 c 1
 370 600 l 1
 290 600 220 550 220 400 c 0
0 400 m 0
 0 694 150 800 370 800 c 1
 790 800 l 1
 1010 800 1160 694 1160 400 c 0
 1160 105 1010 0 790 0 c 1
 370 0 l 1
 150 0 0 105 0 400 c 0
EndSplineSet
Validated: 1
EndChar

StartChar: ocircumflex
Encoding: 244 244 118
Width: 1210
Flags: W
HStem: 0 200<290.938 869.062> 600 200<290.938 869.062>
VStem: 0 220<284.73 515.114> 940 220<284.73 515.114>
LayerCount: 2
Fore
SplineSet
220 400 m 0
 220 250 290 200 370 200 c 1
 790 200 l 1
 870 200 940 250 940 400 c 0
 940 550 870 600 790 600 c 1
 370 600 l 1
 290 600 220 550 220 400 c 0
0 400 m 0
 0 694 150 800 370 800 c 1
 790 800 l 1
 1010 800 1160 694 1160 400 c 0
 1160 105 1010 0 790 0 c 1
 370 0 l 1
 150 0 0 105 0 400 c 0
EndSplineSet
Validated: 1
EndChar

StartChar: otilde
Encoding: 245 245 119
Width: 1210
Flags: W
HStem: 0 200<290.938 869.062> 600 200<290.938 869.062>
VStem: 0 220<284.73 515.114> 940 220<284.73 515.114>
LayerCount: 2
Fore
SplineSet
220 400 m 0
 220 250 290 200 370 200 c 1
 790 200 l 1
 870 200 940 250 940 400 c 0
 940 550 870 600 790 600 c 1
 370 600 l 1
 290 600 220 550 220 400 c 0
0 400 m 0
 0 694 150 800 370 800 c 1
 790 800 l 1
 1010 800 1160 694 1160 400 c 0
 1160 105 1010 0 790 0 c 1
 370 0 l 1
 150 0 0 105 0 400 c 0
EndSplineSet
Validated: 1
EndChar

StartChar: odieresis
Encoding: 246 246 120
Width: 1210
Flags: W
HStem: 0 200<290.938 869.062> 600 200<290.938 869.062>
VStem: 0 220<284.73 515.114> 940 220<284.73 515.114>
LayerCount: 2
Fore
SplineSet
220 400 m 0
 220 250 290 200 370 200 c 1
 790 200 l 1
 870 200 940 250 940 400 c 0
 940 550 870 600 790 600 c 1
 370 600 l 1
 290 600 220 550 220 400 c 0
0 400 m 0
 0 694 150 800 370 800 c 1
 790 800 l 1
 1010 800 1160 694 1160 400 c 0
 1160 105 1010 0 790 0 c 1
 370 0 l 1
 150 0 0 105 0 400 c 0
EndSplineSet
Validated: 1
EndChar

StartChar: oslash
Encoding: 248 248 121
Width: 1210
Flags: W
HStem: 0 200<290.938 869.062> 600 200<290.938 869.062>
VStem: 0 220<284.73 515.114> 940 220<284.73 515.114>
LayerCount: 2
Fore
SplineSet
220 400 m 0
 220 250 290 200 370 200 c 1
 790 200 l 1
 870 200 940 250 940 400 c 0
 940 550 870 600 790 600 c 1
 370 600 l 1
 290 600 220 550 220 400 c 0
0 400 m 0
 0 694 150 800 370 800 c 1
 790 800 l 1
 1010 800 1160 694 1160 400 c 0
 1160 105 1010 0 790 0 c 1
 370 0 l 1
 150 0 0 105 0 400 c 0
EndSplineSet
Validated: 1
EndChar

StartChar: ugrave
Encoding: 249 249 122
Width: 820
Flags: W
HStem: 0 200<305.115 464.885> 594 14<352.175 417.825> 685 20<358 392> 732 20<358 417.256> 786 14<352.175 417.825>
VStem: 0 220<288.659 800> 282 14<664.175 729.825> 330 28<642 685 705 732> 418 28<705.421 731.729> 421 33<642 675> 474 14<664.175 729.825> 550 220<288.659 800>
DStem2: 423 688 392 685 0.558853 -0.829266<0 37.0285>
LayerCount: 2
Fore
SplineSet
330 642 m 1xff70
 330 752 l 1
 400 752 l 2
 429 752 446 744 446 718 c 0xffb0
 446 701 435 692 423 688 c 1
 454 642 l 1
 421 642 l 1
 392 685 l 1
 358 685 l 1
 358 642 l 1
 330 642 l 1xff70
358 705 m 1
 400 705 l 2
 413 705 418 713 418 718 c 0
 418 725 414 732 400 732 c 2
 358 732 l 1
 358 705 l 1
385 608 m 0
 434 608 474 648 474 697 c 0
 474 746 434 786 385 786 c 0
 336 786 296 746 296 697 c 0
 296 648 336 608 385 608 c 0
385 594 m 0
 328 594 282 640 282 697 c 0
 282 754 328 800 385 800 c 0
 442 800 488 754 488 697 c 0
 488 640 442 594 385 594 c 0
0 385 m 9
 0 800 l 25
 220 800 l 25
 220 365 l 17
 220 274 294 200 385 200 c 0
 476 200 550 274 550 365 c 9
 550 800 l 25
 770 800 l 25
 770 385 l 17
 770 172 598 0 385 0 c 0
 172 0 0 172 0 385 c 9
EndSplineSet
Validated: 1
EndChar

StartChar: uacute
Encoding: 250 250 123
Width: 820
Flags: W
HStem: 0 200<305.115 464.885> 594 14<352.175 417.825> 685 20<358 392> 732 20<358 417.256> 786 14<352.175 417.825>
VStem: 0 220<288.659 800> 282 14<664.175 729.825> 330 28<642 685 705 732> 418 28<705.421 731.729> 421 33<642 675> 474 14<664.175 729.825> 550 220<288.659 800>
DStem2: 423 688 392 685 0.558853 -0.829266<0 37.0285>
LayerCount: 2
Fore
SplineSet
330 642 m 1xff70
 330 752 l 1
 400 752 l 2
 429 752 446 744 446 718 c 0xffb0
 446 701 435 692 423 688 c 1
 454 642 l 1
 421 642 l 1
 392 685 l 1
 358 685 l 1
 358 642 l 1
 330 642 l 1xff70
358 705 m 1
 400 705 l 2
 413 705 418 713 418 718 c 0
 418 725 414 732 400 732 c 2
 358 732 l 1
 358 705 l 1
385 608 m 0
 434 608 474 648 474 697 c 0
 474 746 434 786 385 786 c 0
 336 786 296 746 296 697 c 0
 296 648 336 608 385 608 c 0
385 594 m 0
 328 594 282 640 282 697 c 0
 282 754 328 800 385 800 c 0
 442 800 488 754 488 697 c 0
 488 640 442 594 385 594 c 0
0 385 m 9
 0 800 l 25
 220 800 l 25
 220 365 l 17
 220 274 294 200 385 200 c 0
 476 200 550 274 550 365 c 9
 550 800 l 25
 770 800 l 25
 770 385 l 17
 770 172 598 0 385 0 c 0
 172 0 0 172 0 385 c 9
EndSplineSet
Validated: 1
EndChar

StartChar: ucircumflex
Encoding: 251 251 124
Width: 820
Flags: W
HStem: 0 200<305.115 464.885> 594 14<352.175 417.825> 685 20<358 392> 732 20<358 417.256> 786 14<352.175 417.825>
VStem: 0 220<288.659 800> 282 14<664.175 729.825> 330 28<642 685 705 732> 418 28<705.421 731.729> 421 33<642 675> 474 14<664.175 729.825> 550 220<288.659 800>
DStem2: 423 688 392 685 0.558853 -0.829266<0 37.0285>
LayerCount: 2
Fore
SplineSet
330 642 m 1xff70
 330 752 l 1
 400 752 l 2
 429 752 446 744 446 718 c 0xffb0
 446 701 435 692 423 688 c 1
 454 642 l 1
 421 642 l 1
 392 685 l 1
 358 685 l 1
 358 642 l 1
 330 642 l 1xff70
358 705 m 1
 400 705 l 2
 413 705 418 713 418 718 c 0
 418 725 414 732 400 732 c 2
 358 732 l 1
 358 705 l 1
385 608 m 0
 434 608 474 648 474 697 c 0
 474 746 434 786 385 786 c 0
 336 786 296 746 296 697 c 0
 296 648 336 608 385 608 c 0
385 594 m 0
 328 594 282 640 282 697 c 0
 282 754 328 800 385 800 c 0
 442 800 488 754 488 697 c 0
 488 640 442 594 385 594 c 0
0 385 m 9
 0 800 l 25
 220 800 l 25
 220 365 l 17
 220 274 294 200 385 200 c 0
 476 200 550 274 550 365 c 9
 550 800 l 25
 770 800 l 25
 770 385 l 17
 770 172 598 0 385 0 c 0
 172 0 0 172 0 385 c 9
EndSplineSet
Validated: 1
EndChar

StartChar: udieresis
Encoding: 252 252 125
Width: 820
Flags: W
HStem: 0 200<305.115 464.885> 594 14<352.175 417.825> 685 20<358 392> 732 20<358 417.256> 786 14<352.175 417.825>
VStem: 0 220<288.659 800> 282 14<664.175 729.825> 330 28<642 685 705 732> 418 28<705.421 731.729> 421 33<642 675> 474 14<664.175 729.825> 550 220<288.659 800>
DStem2: 423 688 392 685 0.558853 -0.829266<0 37.0285>
LayerCount: 2
Fore
SplineSet
330 642 m 1xff70
 330 752 l 1
 400 752 l 2
 429 752 446 744 446 718 c 0xffb0
 446 701 435 692 423 688 c 1
 454 642 l 1
 421 642 l 1
 392 685 l 1
 358 685 l 1
 358 642 l 1
 330 642 l 1xff70
358 705 m 1
 400 705 l 2
 413 705 418 713 418 718 c 0
 418 725 414 732 400 732 c 2
 358 732 l 1
 358 705 l 1
385 608 m 0
 434 608 474 648 474 697 c 0
 474 746 434 786 385 786 c 0
 336 786 296 746 296 697 c 0
 296 648 336 608 385 608 c 0
385 594 m 0
 328 594 282 640 282 697 c 0
 282 754 328 800 385 800 c 0
 442 800 488 754 488 697 c 0
 488 640 442 594 385 594 c 0
0 385 m 9
 0 800 l 25
 220 800 l 25
 220 365 l 17
 220 274 294 200 385 200 c 0
 476 200 550 274 550 365 c 9
 550 800 l 25
 770 800 l 25
 770 385 l 17
 770 172 598 0 385 0 c 0
 172 0 0 172 0 385 c 9
EndSplineSet
Validated: 1
EndChar

StartChar: yacute
Encoding: 253 253 126
Width: 820
Flags: W
HStem: 0 392<302.927 467.073> 594 14<352.175 417.825> 685 20<358 392> 732 20<358 417.256> 786 14<352.175 417.825>
VStem: 0 220<481.99 800> 275 220<0 212.697> 282 14<664.175 729.825> 330 28<642 685 705 732> 418 28<705.421 731.729> 421 33<642 675> 474 14<664.175 729.825> 550 220<481.99 800>
DStem2: 423 688 392 685 0.558853 -0.829266<0 37.0285>
LayerCount: 2
Fore
SplineSet
330 642 m 1xfca8
 330 752 l 1
 400 752 l 2
 429 752 446 744 446 718 c 0xfcc8
 446 701 435 692 423 688 c 1
 454 642 l 1
 421 642 l 1
 392 685 l 1
 358 685 l 1
 358 642 l 1
 330 642 l 1xfca8
358 705 m 1
 400 705 l 2
 413 705 418 713 418 718 c 0
 418 725 414 732 400 732 c 2
 358 732 l 1
 358 705 l 1
385 608 m 0
 434 608 474 648 474 697 c 0
 474 746 434 786 385 786 c 0
 336 786 296 746 296 697 c 0xfd18
 296 648 336 608 385 608 c 0
385 594 m 0
 328 594 282 640 282 697 c 0
 282 754 328 800 385 800 c 0
 442 800 488 754 488 697 c 0
 488 640 442 594 385 594 c 0
0 577 m 2
 0 800 l 1
 220 800 l 1
 220 557 l 2
 220 466 294 392 385 392 c 0
 476 392 550 466 550 557 c 2
 550 800 l 1
 770 800 l 1
 770 577 l 2
 770 402 654 255 495 208 c 1
 495 0 l 1
 275 0 l 1
 275 208 l 1xfe08
 116 255 0 402 0 577 c 2
EndSplineSet
Validated: 1
EndChar

StartChar: ydieresis
Encoding: 255 255 127
Width: 820
Flags: W
HStem: 0 392<302.927 467.073> 594 14<352.175 417.825> 685 20<358 392> 732 20<358 417.256> 786 14<352.175 417.825>
VStem: 0 220<481.99 800> 275 220<0 212.697> 282 14<664.175 729.825> 330 28<642 685 705 732> 418 28<705.421 731.729> 421 33<642 675> 474 14<664.175 729.825> 550 220<481.99 800>
DStem2: 423 688 392 685 0.558853 -0.829266<0 37.0285>
LayerCount: 2
Fore
SplineSet
330 642 m 1xfca8
 330 752 l 1
 400 752 l 2
 429 752 446 744 446 718 c 0xfcc8
 446 701 435 692 423 688 c 1
 454 642 l 1
 421 642 l 1
 392 685 l 1
 358 685 l 1
 358 642 l 1
 330 642 l 1xfca8
358 705 m 1
 400 705 l 2
 413 705 418 713 418 718 c 0
 418 725 414 732 400 732 c 2
 358 732 l 1
 358 705 l 1
385 608 m 0
 434 608 474 648 474 697 c 0
 474 746 434 786 385 786 c 0
 336 786 296 746 296 697 c 0xfd18
 296 648 336 608 385 608 c 0
385 594 m 0
 328 594 282 640 282 697 c 0
 282 754 328 800 385 800 c 0
 442 800 488 754 488 697 c 0
 488 640 442 594 385 594 c 0
0 577 m 2
 0 800 l 1
 220 800 l 1
 220 557 l 2
 220 466 294 392 385 392 c 0
 476 392 550 466 550 557 c 2
 550 800 l 1
 770 800 l 1
 770 577 l 2
 770 402 654 255 495 208 c 1
 495 0 l 1
 275 0 l 1
 275 208 l 1xfe08
 116 255 0 402 0 577 c 2
EndSplineSet
Validated: 1
EndChar

StartChar: Ydieresis
Encoding: 376 376 128
Width: 820
Flags: W
HStem: 0 392<302.927 467.073> 594 14<352.175 417.825> 685 20<358 392> 732 20<358 417.256> 786 14<352.175 417.825>
VStem: 0 220<481.99 800> 275 220<0 212.697> 282 14<664.175 729.825> 330 28<642 685 705 732> 418 28<705.421 731.729> 421 33<642 675> 474 14<664.175 729.825> 550 220<481.99 800>
DStem2: 423 688 392 685 0.558853 -0.829266<0 37.0285>
LayerCount: 2
Fore
SplineSet
330 642 m 1xfca8
 330 752 l 1
 400 752 l 2
 429 752 446 744 446 718 c 0xfcc8
 446 701 435 692 423 688 c 1
 454 642 l 1
 421 642 l 1
 392 685 l 1
 358 685 l 1
 358 642 l 1
 330 642 l 1xfca8
358 705 m 1
 400 705 l 2
 413 705 418 713 418 718 c 0
 418 725 414 732 400 732 c 2
 358 732 l 1
 358 705 l 1
385 608 m 0
 434 608 474 648 474 697 c 0
 474 746 434 786 385 786 c 0
 336 786 296 746 296 697 c 0xfd18
 296 648 336 608 385 608 c 0
385 594 m 0
 328 594 282 640 282 697 c 0
 282 754 328 800 385 800 c 0
 442 800 488 754 488 697 c 0
 488 640 442 594 385 594 c 0
0 577 m 2
 0 800 l 1
 220 800 l 1
 220 557 l 2
 220 466 294 392 385 392 c 0
 476 392 550 466 550 557 c 2
 550 800 l 1
 770 800 l 1
 770 577 l 2
 770 402 654 255 495 208 c 1
 495 0 l 1
 275 0 l 1
 275 208 l 1xfe08
 116 255 0 402 0 577 c 2
EndSplineSet
Validated: 1
EndChar

StartChar: AE
Encoding: 198 198 129
Width: 2150
Flags: W
HStem: 0 200<236.83 866.203 1233.66 2100> 305 190<236.146 840 1260 1863.85> 600 200<0 866.344 1233.8 1863.17>
VStem: 0 220<213.277 292.181> 940 220<282.877 517.123> 1880 220<507.819 586.723>
CounterMasks: 1 fc
LayerCount: 2
Fore
SplineSet
0 600 m 1
 0 800 l 1
 790 800 l 2
 896 800 986 776 1050 717 c 1
 1115 776 1204 800 1310 800 c 2
 1815 800 l 2
 2032 800 2100 630 2100 547 c 0
 2100 427 1996 305 1815 305 c 2
 1260 305 l 1
 1260 495 l 1
 1815 495 l 2
 1853 495 1880 519 1880 547 c 0
 1880 576 1853 600 1815 600 c 2
 1310 600 l 2
 1230 600 1160 550 1160 400 c 0
 1160 250 1230 200 1310 200 c 2
 2100 200 l 1
 2100 0 l 1
 1310 0 l 2
 1204 0 1114 24 1050 83 c 1
 985 24 896 -0 790 0 c 2
 285 0 l 2
 68 0 0 170 0 253 c 0
 0 373 104 495 285 495 c 2
 840 495 l 1
 840 305 l 1
 285 305 l 2
 247 305 220 281 220 253 c 0
 220 224 247 200 285 200 c 2
 790 200 l 2
 870 200 940 250 940 400 c 0
 940 550 870 600 790 600 c 2
 0 600 l 1
EndSplineSet
Validated: 1
EndChar

StartChar: ae
Encoding: 230 230 130
Width: 2150
Flags: W
HStem: 0 200<236.83 866.203 1233.66 2100> 305 190<236.146 840 1260 1863.85> 600 200<0 866.344 1233.8 1863.17>
VStem: 0 220<213.277 292.181> 940 220<282.877 517.123> 1880 220<507.819 586.723>
LayerCount: 2
Fore
SplineSet
0 600 m 1
 0 800 l 1
 790 800 l 2
 896 800 986 776 1050 717 c 1
 1115 776 1204 800 1310 800 c 2
 1815 800 l 2
 2032 800 2100 630 2100 547 c 0
 2100 427 1996 305 1815 305 c 2
 1260 305 l 1
 1260 495 l 1
 1815 495 l 2
 1853 495 1880 519 1880 547 c 0
 1880 576 1853 600 1815 600 c 2
 1310 600 l 2
 1230 600 1160 550 1160 400 c 0
 1160 250 1230 200 1310 200 c 2
 2100 200 l 1
 2100 0 l 1
 1310 0 l 2
 1204 0 1114 24 1050 83 c 1
 985 24 896 -0 790 0 c 2
 285 0 l 2
 68 0 0 170 0 253 c 0
 0 373 104 495 285 495 c 2
 840 495 l 1
 840 305 l 1
 285 305 l 2
 247 305 220 281 220 253 c 0
 220 224 247 200 285 200 c 2
 790 200 l 2
 870 200 940 250 940 400 c 0
 940 550 870 600 790 600 c 2
 0 600 l 1
EndSplineSet
Validated: 1
EndChar

StartChar: OE
Encoding: 338 338 131
Width: 2150
Flags: W
HStem: 0 200<290.938 866.203 1233.8 2100> 305 190<1260 1863.85> 600 200<290.938 866.203 1233.8 1863.17>
VStem: 0 220<284.73 515.114> 940 220<282.877 517.123> 1880 220<507.819 586.723>
CounterMasks: 1 fc
LayerCount: 2
Fore
SplineSet
0 400 m 0
 0 694 150 800 370 800 c 2
 790 800 l 2
 896 800 985 775 1050 717 c 1
 1115 775 1204 800 1310 800 c 2
 1815 800 l 2
 2032 800 2100 630 2100 547 c 0
 2100 427 1996 305 1815 305 c 2
 1260 305 l 1
 1260 495 l 1
 1815 495 l 2
 1853 495 1880 519 1880 547 c 0
 1880 576 1853 600 1815 600 c 2
 1310 600 l 2
 1230 600 1160 550 1160 400 c 0
 1160 250 1230 200 1310 200 c 2
 2100 200 l 1
 2100 0 l 1
 1310 0 l 2
 1204 0 1115 24 1050 82 c 1
 985 24 896 -0 790 0 c 2
 370 0 l 2
 150 0 0 105 0 400 c 0
220 400 m 0
 220 250 290 200 370 200 c 2
 790 200 l 2
 870 200 940 250 940 400 c 0
 940 550 870 600 790 600 c 2
 370 600 l 2
 290 600 220 550 220 400 c 0
EndSplineSet
Validated: 1
EndChar

StartChar: oe
Encoding: 339 339 132
Width: 2150
Flags: W
HStem: 0 200<290.938 866.203 1233.8 2100> 305 190<1260 1863.85> 600 200<290.938 866.203 1233.8 1863.17>
VStem: 0 220<284.73 515.114> 940 220<282.877 517.123> 1880 220<507.819 586.723>
LayerCount: 2
Fore
SplineSet
0 400 m 0
 0 694 150 800 370 800 c 2
 790 800 l 2
 896 800 985 775 1050 717 c 1
 1115 775 1204 800 1310 800 c 2
 1815 800 l 2
 2032 800 2100 630 2100 547 c 0
 2100 427 1996 305 1815 305 c 2
 1260 305 l 1
 1260 495 l 1
 1815 495 l 2
 1853 495 1880 519 1880 547 c 0
 1880 576 1853 600 1815 600 c 2
 1310 600 l 2
 1230 600 1160 550 1160 400 c 0
 1160 250 1230 200 1310 200 c 2
 2100 200 l 1
 2100 0 l 1
 1310 0 l 2
 1204 0 1115 24 1050 82 c 1
 985 24 896 -0 790 0 c 2
 370 0 l 2
 150 0 0 105 0 400 c 0
220 400 m 0
 220 250 290 200 370 200 c 2
 790 200 l 2
 870 200 940 250 940 400 c 0
 940 550 870 600 790 600 c 2
 370 600 l 2
 290 600 220 550 220 400 c 0
EndSplineSet
Validated: 1
EndChar

StartChar: uniE000
Encoding: 57344 57344 133
Width: 1380
Flags: W
HStem: 0 206<315.361 442.639> 580 220<305.115 466.543 863.457 1024.89>
VStem: 0 220<0 492.697> 276 206<39.3606 166.639> 555 220<0 493.593> 1110 220<0 492.697>
LayerCount: 2
Fore
SplineSet
379 206 m 0
 436 206 482 160 482 103 c 0
 482 46 436 0 379 0 c 0
 322 0 276 46 276 103 c 0
 276 160 322 206 379 206 c 0
0 0 m 1
 0 415 l 2
 0 628 172 800 385 800 c 0
 494 800 594 755 665 682 c 1
 736 755 836 800 945 800 c 0
 1158 800 1330 628 1330 415 c 2
 1330 0 l 1
 1110 0 l 1
 1110 415 l 2
 1110 506 1036 580 945 580 c 0
 854 580 775 506 775 415 c 2
 775 0 l 1
 555 0 l 1
 555 415 l 2
 555 506 476 580 385 580 c 0
 294 580 220 506 220 415 c 2
 220 0 l 1
 0 0 l 1
EndSplineSet
Validated: 1
EndChar

StartChar: uniE001
Encoding: 57345 57345 134
Width: 820
Flags: W
HStem: 0 206<321.361 448.639> 600 200<305.115 464.885>
VStem: 0 220<0 511.341> 282 206<39.3606 166.639> 550 220<0 511.341>
LayerCount: 2
Fore
SplineSet
385 206 m 0
 442 206 488 160 488 103 c 0
 488 46 442 0 385 0 c 0
 328 0 282 46 282 103 c 0
 282 160 328 206 385 206 c 0
0 0 m 25
 0 415 l 17
 0 628 172 800 385 800 c 0
 598 800 770 628 770 415 c 9
 770 0 l 25
 550 0 l 25
 550 435 l 17
 550 526 476 600 385 600 c 0
 294 600 220 526 220 435 c 9
 220 0 l 25
 0 0 l 25
EndSplineSet
Validated: 1
EndChar

StartChar: uniE002
Encoding: 57346 57346 135
Width: 820
Flags: W
HStem: 0 200<305.115 464.885> 594 206<321.361 448.639>
VStem: 0 220<288.659 800> 282 206<633.361 760.639> 550 220<288.659 800>
LayerCount: 2
Fore
SplineSet
385 594 m 0
 328 594 282 640 282 697 c 0
 282 754 328 800 385 800 c 0
 442 800 488 754 488 697 c 0
 488 640 442 594 385 594 c 0
0 385 m 9
 0 800 l 25
 220 800 l 25
 220 365 l 17
 220 274 294 200 385 200 c 0
 476 200 550 274 550 365 c 9
 550 800 l 25
 770 800 l 25
 770 385 l 17
 770 172 598 0 385 0 c 0
 172 0 0 172 0 385 c 9
EndSplineSet
Validated: 1
EndChar

StartChar: uniE003
Encoding: 57347 57347 136
Width: 1380
Flags: W
HStem: 0 220<305.115 466.543 863.457 1024.89> 594 206<887.361 1014.64>
VStem: 0 220<307.303 800> 555 220<306.407 800> 848 206<633.361 760.639> 1110 220<307.303 800>
LayerCount: 2
Fore
SplineSet
951 594 m 0
 894 594 848 640 848 697 c 0
 848 754 894 800 951 800 c 0
 1008 800 1054 754 1054 697 c 0
 1054 640 1008 594 951 594 c 0
0 385 m 2
 0 800 l 1
 220 800 l 1
 220 385 l 2
 220 294 294 220 385 220 c 0
 476 220 555 294 555 385 c 2
 555 800 l 1
 775 800 l 1
 775 385 l 2
 775 294 854 220 945 220 c 0
 1036 220 1110 294 1110 385 c 2
 1110 800 l 1
 1330 800 l 1
 1330 385 l 2
 1330 172 1158 0 945 0 c 0
 836 0 736 45 665 118 c 1
 594 45 494 0 385 0 c 0
 172 0 0 172 0 385 c 2
EndSplineSet
Validated: 1
EndChar

StartChar: uniE004
Encoding: 57348 57348 137
Width: 820
Flags: W
HStem: 0 392<302.927 467.073> 594 206<321.361 448.639>
VStem: 0 220<481.99 800> 275 220<0 212.697> 282 206<633.361 760.639> 550 220<481.99 800>
LayerCount: 2
Fore
SplineSet
385 594 m 0xec
 328 594 282 640 282 697 c 0
 282 754 328 800 385 800 c 0
 442 800 488 754 488 697 c 0
 488 640 442 594 385 594 c 0xec
0 577 m 2
 0 800 l 1
 220 800 l 1
 220 557 l 2
 220 466 294 392 385 392 c 0
 476 392 550 466 550 557 c 2
 550 800 l 1
 770 800 l 1
 770 577 l 2
 770 402 654 255 495 208 c 1
 495 0 l 1
 275 0 l 1
 275 208 l 1xf4
 116 255 0 402 0 577 c 2
EndSplineSet
Validated: 1
EndChar

StartChar: uniE020
Encoding: 57376 57376 138
Width: 1380
Flags: W
HStem: 0 21G<0 220 555 775 1110 1330> 580 220<305.115 466.543 863.457 1024.89>
VStem: 0 220<0 492.697> 555 220<0 493.593> 1110 220<0 492.697>
CounterMasks: 1 38
LayerCount: 2
Fore
SplineSet
0 0 m 1
 0 415 l 2
 0 628 172 800 385 800 c 0
 494 800 594 755 665 682 c 1
 736 755 836 800 945 800 c 0
 1158 800 1330 628 1330 415 c 2
 1330 0 l 1
 1110 0 l 1
 1110 415 l 2
 1110 506 1036 580 945 580 c 0
 854 580 775 506 775 415 c 2
 775 0 l 1
 555 0 l 1
 555 415 l 2
 555 506 476 580 385 580 c 0
 294 580 220 506 220 415 c 2
 220 0 l 1
 0 0 l 1
EndSplineSet
Validated: 1
EndChar

StartChar: uniE021
Encoding: 57377 57377 139
Width: 820
Flags: W
HStem: 0 21G<0 220 550 770> 600 200<305.115 464.885>
VStem: 0 220<0 511.341> 550 220<0 511.341>
LayerCount: 2
Fore
SplineSet
0 0 m 25
 0 415 l 17
 0 628 172 800 385 800 c 0
 598 800 770 628 770 415 c 9
 770 0 l 25
 550 0 l 25
 550 435 l 17
 550 526 476 600 385 600 c 0
 294 600 220 526 220 435 c 9
 220 0 l 25
 0 0 l 25
EndSplineSet
Validated: 1
EndChar

StartChar: uniE022
Encoding: 57378 57378 140
Width: 820
Flags: W
HStem: 0 200<305.115 464.885> 780 20G<0 220 550 770>
VStem: 0 220<288.659 800> 550 220<288.659 800>
LayerCount: 2
Fore
SplineSet
0 385 m 9
 0 800 l 25
 220 800 l 25
 220 365 l 17
 220 274 294 200 385 200 c 0
 476 200 550 274 550 365 c 9
 550 800 l 25
 770 800 l 25
 770 385 l 17
 770 172 598 0 385 0 c 0
 172 0 0 172 0 385 c 9
EndSplineSet
Validated: 1
EndChar

StartChar: uniE023
Encoding: 57379 57379 141
Width: 1380
Flags: W
HStem: 0 220<305.115 466.543 863.457 1024.89> 780 20G<0 220 555 775 1110 1330>
VStem: 0 220<307.303 800> 555 220<306.407 800> 1110 220<307.303 800>
CounterMasks: 1 38
LayerCount: 2
Fore
SplineSet
0 385 m 2
 0 800 l 1
 220 800 l 1
 220 385 l 2
 220 294 294 220 385 220 c 0
 476 220 555 294 555 385 c 2
 555 800 l 1
 775 800 l 1
 775 385 l 2
 775 294 854 220 945 220 c 0
 1036 220 1110 294 1110 385 c 2
 1110 800 l 1
 1330 800 l 1
 1330 385 l 2
 1330 172 1158 0 945 0 c 0
 836 0 736 45 665 118 c 1
 594 45 494 0 385 0 c 0
 172 0 0 172 0 385 c 2
EndSplineSet
Validated: 1
EndChar

StartChar: uniE024
Encoding: 57380 57380 142
Width: 820
Flags: W
HStem: 0 392<302.927 467.073> 780 20G<0 220 550 770>
VStem: 0 220<481.99 800> 275 220<0 212.697> 550 220<481.99 800>
CounterMasks: 1 38
LayerCount: 2
Fore
SplineSet
0 577 m 2
 0 800 l 1
 220 800 l 1
 220 557 l 2
 220 466 294 392 385 392 c 0
 476 392 550 466 550 557 c 2
 550 800 l 1
 770 800 l 1
 770 577 l 2
 770 402 654 255 495 208 c 1
 495 0 l 1
 275 0 l 1
 275 208 l 1
 116 255 0 402 0 577 c 2
EndSplineSet
Validated: 1
EndChar

StartChar: quotedbl
Encoding: 34 34 143
Width: 570
Flags: W
HStem: 480 320<0 220 300 520>
VStem: 0 220<480 800> 300 220<480 800>
LayerCount: 2
Fore
SplineSet
300 480 m 1
 300 800 l 1
 520 800 l 1
 520 480 l 1
 300 480 l 1
0 480 m 1
 0 800 l 1
 220 800 l 1
 220 480 l 1
 0 480 l 1
EndSplineSet
EndChar

StartChar: uniE040
Encoding: 57408 57408 144
Width: 270
Flags: W
HStem: 0 200<48.3579 171.642> 780 20G<0 220>
VStem: 0 220<220 800> 10 200<38.3579 161.642>
LayerCount: 2
Fore
SplineSet
110 0 m 0xd0
 55 0 10 45 10 100 c 0
 10 155 55 200 110 200 c 0
 165 200 210 155 210 100 c 0
 210 45 165 0 110 0 c 0xd0
0 220 m 1xe0
 0 800 l 1
 220 800 l 1
 220 220 l 1
 0 220 l 1xe0
EndSplineSet
Validated: 1
EndChar

StartChar: uniE041
Encoding: 57409 57409 145
Width: 570
Flags: W
HStem: 520 280<0 220 300 520>
VStem: 0 220<520 800> 300 220<520 800>
LayerCount: 2
Fore
SplineSet
300 520 m 1
 300 800 l 1
 520 800 l 1
 520 520 l 1
 300 520 l 1
0 520 m 1
 0 800 l 1
 220 800 l 1
 220 520 l 1
 0 520 l 1
EndSplineSet
EndChar

StartChar: uniE042
Encoding: 57410 57410 146
Width: 160
Flags: W
HStem: 600 320<0 110>
VStem: 0 110<600 920>
LayerCount: 2
Fore
SplineSet
0 600 m 1
 0 920 l 1
 110 920 l 1
 110 600 l 1
 0 600 l 1
EndSplineSet
EndChar

StartChar: uniE043
Encoding: 57411 57411 147
Width: 250
Flags: W
HStem: 0 200<38.3579 161.642>
VStem: 0 200<38.3579 161.642>
LayerCount: 2
Fore
SplineSet
100 0 m 0
 45 0 0 45 0 100 c 0
 0 155 45 200 100 200 c 0
 155 200 200 155 200 100 c 0
 200 45 155 0 100 0 c 0
EndSplineSet
EndChar

StartChar: uniE044
Encoding: 57412 57412 148
Width: 250
Flags: W
HStem: 0 200<38.3579 161.642> 300 200<38.3579 161.642>
VStem: 0 200<38.3579 161.642 338.358 461.642>
LayerCount: 2
Fore
SplineSet
100 300 m 0
 45 300 0 345 0 400 c 0
 0 455 45 500 100 500 c 0
 155 500 200 455 200 400 c 0
 200 345 155 300 100 300 c 0
100 0 m 0
 45 0 0 45 0 100 c 0
 0 155 45 200 100 200 c 0
 155 200 200 155 200 100 c 0
 200 45 155 0 100 0 c 0
EndSplineSet
EndChar

StartChar: uniE045
Encoding: 57413 57413 149
Width: 890
Flags: W
HStem: 0 200<48.3579 171.642> 280 200<235.162 598.411> 600 200<0 603.025>
VStem: 10 200<38.3579 161.642> 620 220<497.075 582.618>
LayerCount: 2
Fore
SplineSet
110 0 m 0
 55 0 10 45 10 100 c 0
 10 155 55 200 110 200 c 0
 165 200 210 155 210 100 c 0
 210 45 165 0 110 0 c 0
0 220 m 17
 0 240 l 1
 0 375 127 480 260 480 c 1
 550 480 l 1
 595 480 620 510 620 540 c 1
 620 570 595 600 550 600 c 1
 0 600 l 9
 0 800 l 17
 570 800 l 1
 752 800 840 664 840 540 c 1
 840 388 724 280 570 280 c 1
 275 280 l 1
 248 280 220 255 220 225 c 1
 220 220 l 9
 0 220 l 17
EndSplineSet
EndChar

StartChar: uniE047
Encoding: 57415 57415 151
Width: 540
Flags: W
HStem: 0 21G<270 490> 600 200<0 226.434>
VStem: 270 220<0 553.187>
LayerCount: 2
Fore
SplineSet
0 600 m 25
 0 800 l 25
 160 800 l 17
 342 800 490 666 490 500 c 9
 490 0 l 25
 270 0 l 1
 270 500 l 1
 270 555 221 600 160 600 c 9
 0 600 l 25
EndSplineSet
EndChar

StartChar: uniE048
Encoding: 57416 57416 152
Width: 890
Flags: W
HStem: 0 200<0 603.17> 300 200<0 609.453> 600 200<0 603.17>
VStem: 620 220<213.577 287.337 512.663 586.423>
CounterMasks: 1 e0
LayerCount: 2
Fore
SplineSet
0 0 m 9
 0 200 l 17
 555 200 l 2
 593 200 620 221 620 250 c 0
 620 278 593 300 555 300 c 2
 0 300 l 9
 0 500 l 17
 555 500 l 2
 593 500 620 522 620 550 c 0
 620 579 593 600 555 600 c 2
 0 600 l 9
 0 800 l 17
 555 800 l 2
 772 800 840 633 840 550 c 0
 840 498 821 444 784 400 c 1
 821 356 840 302 840 250 c 0
 840 167 772 0 555 0 c 2
 0 0 l 9
EndSplineSet
EndChar

StartChar: uniE049
Encoding: 57417 57417 153
Width: 890
Flags: W
HStem: 0 21G<420 590> 130 170<220 420 590 840> 480 200<235.162 598.411> 780 20G<620 840>
VStem: 0 220<300 464.943> 420 170<0 130 300 430>
LayerCount: 2
Fore
SplineSet
0 130 m 9
 0 440 l 17
 0 575 127 680 260 680 c 1
 550 680 l 1
 595 680 620 710 620 740 c 9
 620 800 l 25
 840 800 l 25
 840 740 l 17
 840 588 724 480 570 480 c 1
 275 480 l 1
 248 480 220 455 220 425 c 9
 220 300 l 17
 420 300 l 1
 420 430 l 1
 590 430 l 1
 590 300 l 1
 840 300 l 1
 840 130 l 1
 590 130 l 1
 590 0 l 1
 420 0 l 1
 420 130 l 1
 0 130 l 9
EndSplineSet
EndChar

StartChar: comma
Encoding: 44 44 154
Width: 270
Flags: W
HStem: -120 320<0 220>
VStem: 0 220<-120 200>
LayerCount: 2
Fore
SplineSet
0 -120 m 1
 0 200 l 1
 220 200 l 1
 220 -120 l 1
 0 -120 l 1
EndSplineSet
Validated: 1
EndChar

StartChar: semicolon
Encoding: 59 59 155
Width: 270
Flags: W
HStem: -120 320<0 220> 250 200<0 220>
VStem: 0 220<-120 200 250 450>
LayerCount: 2
Fore
SplineSet
0 250 m 1
 0 450 l 1
 220 450 l 1
 220 250 l 1
 0 250 l 1
0 -120 m 1
 0 200 l 1
 220 200 l 1
 220 -120 l 1
 0 -120 l 1
EndSplineSet
Validated: 1
EndChar

StartChar: uniE04A
Encoding: 57418 57418 156
Width: 890
Flags: W
HStem: 0 200<0 603.025> 320 200<235.162 598.411> 630 170<220 840>
VStem: 620 220<217.382 302.925>
LayerCount: 2
Fore
SplineSet
0 0 m 9
 0 200 l 17
 550 200 l 1
 595 200 620 230 620 260 c 1
 620 290 595 320 550 320 c 1
 260 320 l 1
 127 320 0 425 0 560 c 9
 0 800 l 17
 840 800 l 1
 840 630 l 1
 220 630 l 9
 220 575 l 17
 220 545 248 520 275 520 c 1
 570 520 l 1
 724 520 840 412 840 260 c 1
 840 136 752 0 570 0 c 1
 0 0 l 9
EndSplineSet
EndChar

StartChar: uniE04C
Encoding: 57420 57420 157
Width: 1210
Flags: W
HStem: 0 200<290.938 923.17> 305 190<320 923.854> 600 200<290.938 1160>
VStem: 0 220<284.886 515.27> 940 220<213.277 292.181>
LayerCount: 2
Fore
SplineSet
0 400 m 0
 0 695 150 800 370 800 c 1
 1160 800 l 9
 1160 600 l 17
 370 600 l 1
 290 600 220 550 220 400 c 0
 220 250 290 200 370 200 c 1
 875 200 l 1
 913 200 940 224 940 253 c 0
 940 281 913 305 875 305 c 1
 320 305 l 9
 320 495 l 17
 875 495 l 1
 1056 495 1160 373 1160 253 c 0
 1160 170 1092 0 875 0 c 1
 370 0 l 1
 150 0 0 106 0 400 c 0
EndSplineSet
EndChar

StartChar: uniE04B
Encoding: 57419 57419 158
Width: 890
Flags: W
HStem: 0 200<263.566 603.025> 320 200<320 598.411> 600 200<263.566 840>
VStem: 0 220<246.813 553.187> 620 220<217.382 302.925>
LayerCount: 2
Fore
SplineSet
0 300 m 2
 0 500 l 2
 0 666 148 800 330 800 c 2
 840 800 l 1
 840 600 l 1
 330 600 l 2
 269 600 220 555 220 500 c 2
 220 300 l 2
 220 245 269 200 330 200 c 2
 550 200 l 2
 595 200 620 230 620 260 c 0
 620 290 595 320 550 320 c 2
 320 320 l 1
 320 520 l 1
 570 520 l 2
 724 520 840 412 840 260 c 0
 840 136 752 0 570 0 c 2
 330 0 l 2
 148 0 0 134 0 300 c 2
EndSplineSet
EndChar

StartChar: plus
Encoding: 43 43 159
Width: 450
Flags: W
HStem: 300 200<0 100 300 400>
VStem: 100 200<200 300 500 600>
LayerCount: 2
Fore
SplineSet
0 300 m 1
 0 500 l 1
 100 500 l 1
 100 600 l 1
 300 600 l 1
 300 500 l 1
 400 500 l 1
 400 300 l 1
 300 300 l 1
 300 200 l 1
 100 200 l 1
 100 300 l 1
 0 300 l 1
EndSplineSet
Validated: 1
EndChar

StartChar: copyright
Encoding: 169 169 160
Width: 922
Flags: W
HStem: 0 21G<104 256.667 615.333 768> 132 140<0 181 322 550 691 872> 312 145<277 331 541 595> 312 70<358 514> 457 27<331 541> 660 140<238.735 633.265>
VStem: 104 141<0 141> 104 133<312 656.775> 237 121<498 619> 277 81<382 457> 514 121<498 619> 514 81<382 457> 627 141<0 141> 635 133<312 656.775>
LayerCount: 2
Fore
SplineSet
104 312 m 25xd5
 104 626 l 17xd5
 104 722 182 800 278 800 c 1
 594 800 l 17
 690 800 768 722 768 626 c 1
 768 312 l 25
 635 312 l 25
 635 660 l 25
 237 660 l 25xd484
 237 312 l 25
 104 312 l 25xd5
277 312 m 25xe450
 277 457 l 25xe450
 358 457 l 25
 358 382 l 25
 514 382 l 25
 514 457 l 25xdc50
 595 457 l 25
 595 312 l 25
 277 312 l 25xe450
331 457 m 9
 237 619 l 25xe520
 358 619 l 1
 436 484 l 1
 514 619 l 1
 635 619 l 25xcca0
 541 457 l 1
 331 457 l 9
0 132 m 25
 0 272 l 25
 872 272 l 25
 872 132 l 25
 691 132 l 25
 768 0 l 25
 627 0 l 25
 550 132 l 25
 322 132 l 25
 245 0 l 25
 104 0 l 25xc608
 181 132 l 25
 0 132 l 25
EndSplineSet
Validated: 5
EndChar

StartChar: registered
Encoding: 174 174 161
Width: 850
Flags: W
HStem: 0 54<281.045 518.955> 354 78<295 427> 536 78<295 518.708> 746 54<281.045 518.955>
VStem: 0 54<281.045 518.955> 186 109<186 354 432 536> 528 109<443.193 524.855> 540 128<186 314> 746 54<281.045 518.955>
DStem2: 547 366 427 354 0.557888 -0.829916<0 145.48>
LayerCount: 2
Fore
SplineSet
295 432 m 25xfe80
 458 432 l 17
 505 432 528 450 528 484 c 0
 528 518 505 536 458 536 c 9
 295 536 l 25
 295 432 l 25xfe80
186 186 m 25
 186 614 l 25
 458 614 l 1
 577 614 637 570 637 484 c 0xfe80
 637 425 607 386 547 366 c 9
 668 186 l 1
 540 186 l 25xfd80
 427 354 l 25
 295 354 l 25
 295 186 l 25
 186 186 l 25
400 54 m 0
 591 54 746 209 746 400 c 0
 746 591 591 746 400 746 c 0
 209 746 54 591 54 400 c 0
 54 209 209 54 400 54 c 0
400 0 m 0
 179 0 0 179 0 400 c 0
 0 621 179 800 400 800 c 0
 621 800 800 621 800 400 c 0
 800 179 621 0 400 0 c 0
EndSplineSet
Validated: 1
EndChar

StartChar: slash
Encoding: 47 47 162
Width: 730
Flags: W
HStem: 0 21G<0 221.75> 780 20G<458.25 680>
VStem: 0 210<0 210> 470 210<590 800>
DStem2: 0 0 210 0 0.506549 0.862211<106.375 927.847>
LayerCount: 2
Fore
SplineSet
0 0 m 1
 470 800 l 1
 680 800 l 1
 210 0 l 1
 0 0 l 1
EndSplineSet
Validated: 1
EndChar

StartChar: backslash
Encoding: 92 92 163
Width: 730
Flags: W
HStem: 0 21G<458.25 680> 780 20G<0 221.75>
VStem: 0 210<590 800> 470 210<0 210>
DStem2: 210 800 0 800 0.506549 -0.862211<0 821.472>
LayerCount: 2
Fore
SplineSet
0 800 m 1
 210 800 l 1
 680 0 l 1
 470 0 l 1
 0 800 l 1
EndSplineSet
Validated: 1
EndChar

StartChar: numbersign
Encoding: 35 35 164
Width: 820
Flags: W
HStem: 240 237<87 169 319 401> 563 237<369 451 601 683>
LayerCount: 2
Fore
SplineSet
0 326 m 1
 87 477 l 1
 169 477 l 1
 219 563 l 1
 137 563 l 1
 224 714 l 1
 306 714 l 1
 356 800 l 1
 506 800 l 1
 456 714 l 1
 538 714 l 1
 588 800 l 1
 738 800 l 1
 688 714 l 1
 770 714 l 1
 683 563 l 1
 601 563 l 1
 551 477 l 1
 633 477 l 1
 546 326 l 1
 464 326 l 1
 414 240 l 1
 264 240 l 1
 314 326 l 1
 232 326 l 1
 182 240 l 1
 32 240 l 1
 82 326 l 1
 0 326 l 1
319 477 m 1
 401 477 l 1
 451 563 l 1
 369 563 l 1
 319 477 l 1
EndSplineSet
EndChar

StartChar: uniE060
Encoding: 57440 57440 165
Width: 1210
Flags: W
HStem: 0 200<270 869.062> 600 200<263.566 869.062>
VStem: 0 220<0 553.187> 940 220<284.73 515.114>
LayerCount: 2
Fore
SplineSet
0 0 m 25
 0 500 l 17
 0 666 148 800 330 800 c 1
 790 800 l 1
 1010 800 1160 694 1160 400 c 0
 1160 105 1010 0 790 0 c 1
 270 0 l 1
 270 200 l 1
 790 200 l 1
 870 200 940 250 940 400 c 0
 940 550 870 600 790 600 c 1
 330 600 l 1
 269 600 220 555 220 500 c 1
 220 0 l 1
 0 0 l 25
EndSplineSet
Validated: 1
EndChar

StartChar: uniE061
Encoding: 57441 57441 166
Width: 820
Flags: W
HStem: 0 21G<0 220> 300 200<220 770> 600 200<263.566 770>
VStem: 0 220<0 300 500 553.187>
LayerCount: 2
Fore
SplineSet
0 0 m 1
 0 500 l 2
 0 666 148 800 330 800 c 2
 770 800 l 1
 770 600 l 1
 330 600 l 2
 269 600 220 555 220 500 c 1
 770 500 l 1
 770 300 l 1
 220 300 l 1
 220 0 l 1
 0 0 l 1
EndSplineSet
Validated: 1
EndChar

StartChar: uniE04E
Encoding: 57422 57422 167
Width: 890
Flags: W
HStem: 0 200<236.83 603.17> 300 200<230.547 609.453> 600 200<236.83 603.17>
VStem: 0 220<213.577 287.337 512.663 586.423> 620 220<213.577 287.337 512.663 586.423>
LayerCount: 2
Fore
SplineSet
0 250 m 0
 0 302 19 356 56 400 c 1
 19 444 0 498 0 550 c 0
 0 633 68 800 285 800 c 2
 555 800 l 2
 772 800 840 633 840 550 c 0
 840 498 821 444 784 400 c 1
 821 356 840 302 840 250 c 0
 840 167 772 0 555 0 c 2
 285 0 l 2
 68 0 0 167 0 250 c 0
220 250 m 0
 220 221 247 200 285 200 c 2
 555 200 l 2
 593 200 620 221 620 250 c 0
 620 278 593 300 555 300 c 2
 285 300 l 2
 247 300 220 278 220 250 c 0
220 550 m 0
 220 522 247 500 285 500 c 2
 555 500 l 2
 593 500 620 522 620 550 c 0
 620 579 593 600 555 600 c 2
 285 600 l 2
 247 600 220 579 220 550 c 0
EndSplineSet
EndChar

StartChar: uniE04D
Encoding: 57421 57421 168
Width: 890
Flags: W
HStem: 0 21G<520 740> 170 220<290 520 740 840> 600 200<0 476.434>
VStem: 520 220<0 170 390 553.187>
LayerCount: 2
Fore
SplineSet
0 600 m 25
 0 800 l 25
 410 800 l 17
 592 800 740 666 740 500 c 1
 740 390 l 1
 840 390 l 1
 840 170 l 1
 740 170 l 1
 740 0 l 9
 520 0 l 1
 520 170 l 1
 290 170 l 1
 290 390 l 1
 520 390 l 1
 520 500 l 1
 520 555 471 600 410 600 c 9
 0 600 l 25
EndSplineSet
EndChar

StartChar: uniE04F
Encoding: 57423 57423 169
Width: 890
Flags: W
HStem: 0 21G<620 840> 320 170<237.644 520> 600 200<235.162 576.434>
VStem: 0 220<503.945 586.131> 620 220<0 553.187>
LayerCount: 2
Fore
SplineSet
0 560 m 1
 0 695 127 800 260 800 c 1
 510 800 l 1
 692 800 840 666 840 500 c 9
 840 0 l 25
 620 0 l 1
 620 500 l 1
 620 555 571 600 510 600 c 1
 275 600 l 1
 248 600 220 575 220 545 c 1
 220 515 248 490 275 490 c 1
 520 490 l 1
 520 320 l 1
 260 320 l 1
 98 320 0 443 0 560 c 1
EndSplineSet
EndChar

StartChar: uniE050
Encoding: 57424 57424 170
Width: 820
Flags: W
HStem: 0 200<263.566 770> 400 200<220 770> 780 20G<0 220>
VStem: 0 220<246.813 400 600 800>
LayerCount: 2
Fore
SplineSet
0 300 m 9
 0 800 l 25
 220 800 l 1
 220 600 l 1
 770 600 l 1
 770 400 l 1
 220 400 l 1
 220 300 l 1
 220 245 269 200 330 200 c 9
 770 200 l 25
 770 0 l 25
 330 0 l 17
 148 0 0 134 0 300 c 9
EndSplineSet
EndChar

StartChar: uniE051
Encoding: 57425 57425 171
Width: 850
Flags: W
HStem: 0 220<364.017 435.983> 780 20G<0 191.113 608.887 800>
VStem: 0 185<615 800> 615 185<615 800>
DStem2: 185 800 0 800 0.29231 -0.956324<0 608.492> 615 800 800 800 0.29231 0.956324<-608.492 0>
LayerCount: 2
Fore
SplineSet
0 800 m 1
 185 800 l 1
 347 270 l 2
 354 249 375 220 400 220 c 0
 425 220 446 249 453 270 c 2
 615 800 l 1
 800 800 l 1
 638 270 l 2
 580 82 493 0 400 0 c 0
 307 0 220 82 162 270 c 2
 0 800 l 1
EndSplineSet
EndChar
